%TF.GenerationSoftware,KiCad,Pcbnew,(6.0.7)*%
%TF.CreationDate,2022-10-27T14:16:22+02:00*%
%TF.ProjectId,Projet,50726f6a-6574-42e6-9b69-6361645f7063,1.0*%
%TF.SameCoordinates,Original*%
%TF.FileFunction,Paste,Top*%
%TF.FilePolarity,Positive*%
%FSLAX46Y46*%
G04 Gerber Fmt 4.6, Leading zero omitted, Abs format (unit mm)*
G04 Created by KiCad (PCBNEW (6.0.7)) date 2022-10-27 14:16:22*
%MOMM*%
%LPD*%
G01*
G04 APERTURE LIST*
G04 Aperture macros list*
%AMRoundRect*
0 Rectangle with rounded corners*
0 $1 Rounding radius*
0 $2 $3 $4 $5 $6 $7 $8 $9 X,Y pos of 4 corners*
0 Add a 4 corners polygon primitive as box body*
4,1,4,$2,$3,$4,$5,$6,$7,$8,$9,$2,$3,0*
0 Add four circle primitives for the rounded corners*
1,1,$1+$1,$2,$3*
1,1,$1+$1,$4,$5*
1,1,$1+$1,$6,$7*
1,1,$1+$1,$8,$9*
0 Add four rect primitives between the rounded corners*
20,1,$1+$1,$2,$3,$4,$5,0*
20,1,$1+$1,$4,$5,$6,$7,0*
20,1,$1+$1,$6,$7,$8,$9,0*
20,1,$1+$1,$8,$9,$2,$3,0*%
G04 Aperture macros list end*
%ADD10RoundRect,0.237500X0.237500X-0.300000X0.237500X0.300000X-0.237500X0.300000X-0.237500X-0.300000X0*%
%ADD11RoundRect,0.237500X0.237500X-0.250000X0.237500X0.250000X-0.237500X0.250000X-0.237500X-0.250000X0*%
%ADD12RoundRect,0.237500X0.300000X0.237500X-0.300000X0.237500X-0.300000X-0.237500X0.300000X-0.237500X0*%
%ADD13R,2.400000X0.740000*%
%ADD14RoundRect,0.237500X-0.237500X0.250000X-0.237500X-0.250000X0.237500X-0.250000X0.237500X0.250000X0*%
%ADD15RoundRect,0.237500X-0.237500X0.300000X-0.237500X-0.300000X0.237500X-0.300000X0.237500X0.300000X0*%
%ADD16RoundRect,0.237500X-0.300000X-0.237500X0.300000X-0.237500X0.300000X0.237500X-0.300000X0.237500X0*%
%ADD17RoundRect,0.237500X0.250000X0.237500X-0.250000X0.237500X-0.250000X-0.237500X0.250000X-0.237500X0*%
%ADD18R,1.300000X1.000000*%
%ADD19RoundRect,0.075000X-0.700000X-0.075000X0.700000X-0.075000X0.700000X0.075000X-0.700000X0.075000X0*%
%ADD20RoundRect,0.075000X-0.075000X-0.700000X0.075000X-0.700000X0.075000X0.700000X-0.075000X0.700000X0*%
%ADD21R,1.200000X0.600000*%
%ADD22RoundRect,0.150000X0.150000X-0.725000X0.150000X0.725000X-0.150000X0.725000X-0.150000X-0.725000X0*%
%ADD23R,2.100000X1.400000*%
%ADD24R,1.850000X3.200000*%
%ADD25R,1.850000X0.900000*%
%ADD26RoundRect,0.237500X0.237500X-0.287500X0.237500X0.287500X-0.237500X0.287500X-0.237500X-0.287500X0*%
%ADD27RoundRect,0.237500X-0.287500X-0.237500X0.287500X-0.237500X0.287500X0.237500X-0.287500X0.237500X0*%
G04 APERTURE END LIST*
D10*
%TO.C,C204*%
X148650000Y-116337500D03*
X148650000Y-118062500D03*
%TD*%
D11*
%TO.C,R403*%
X116100000Y-106612500D03*
X116100000Y-104787500D03*
%TD*%
%TO.C,R502*%
X113300000Y-122012500D03*
X113300000Y-120187500D03*
%TD*%
D12*
%TO.C,C502*%
X108162500Y-117600000D03*
X106437500Y-117600000D03*
%TD*%
D13*
%TO.C,J201*%
X182000000Y-118110000D03*
X178100000Y-118110000D03*
X182000000Y-116840000D03*
X178100000Y-116840000D03*
X182000000Y-115570000D03*
X178100000Y-115570000D03*
X182000000Y-114300000D03*
X178100000Y-114300000D03*
X182000000Y-113030000D03*
X178100000Y-113030000D03*
X182000000Y-111760000D03*
X178100000Y-111760000D03*
X182000000Y-110490000D03*
X178100000Y-110490000D03*
%TD*%
D14*
%TO.C,R202*%
X151700000Y-128087500D03*
X151700000Y-129912500D03*
%TD*%
D15*
%TO.C,C201*%
X190600000Y-110162500D03*
X190600000Y-108437500D03*
%TD*%
D16*
%TO.C,C304*%
X171800000Y-138100000D03*
X173525000Y-138100000D03*
%TD*%
D17*
%TO.C,R203*%
X146087500Y-125700000D03*
X147912500Y-125700000D03*
%TD*%
D11*
%TO.C,R402*%
X179800000Y-106112500D03*
X179800000Y-104287500D03*
%TD*%
%TO.C,R404*%
X118600000Y-106612500D03*
X118600000Y-104787500D03*
%TD*%
D10*
%TO.C,C401*%
X186900000Y-147662500D03*
X186900000Y-145937500D03*
%TD*%
D18*
%TO.C,Y201*%
X145850000Y-123850000D03*
X148050000Y-123850000D03*
X148050000Y-122050000D03*
X145850000Y-122050000D03*
%TD*%
D10*
%TO.C,C308*%
X183500000Y-142025000D03*
X183500000Y-140300000D03*
%TD*%
%TO.C,C402*%
X115400000Y-146662500D03*
X115400000Y-144937500D03*
%TD*%
D19*
%TO.C,U201*%
X151625000Y-115550000D03*
X151625000Y-116050000D03*
X151625000Y-116550000D03*
X151625000Y-117050000D03*
X151625000Y-117550000D03*
X151625000Y-118050000D03*
X151625000Y-118550000D03*
X151625000Y-119050000D03*
X151625000Y-119550000D03*
X151625000Y-120050000D03*
X151625000Y-120550000D03*
X151625000Y-121050000D03*
X151625000Y-121550000D03*
X151625000Y-122050000D03*
X151625000Y-122550000D03*
X151625000Y-123050000D03*
D20*
X153550000Y-124975000D03*
X154050000Y-124975000D03*
X154550000Y-124975000D03*
X155050000Y-124975000D03*
X155550000Y-124975000D03*
X156050000Y-124975000D03*
X156550000Y-124975000D03*
X157050000Y-124975000D03*
X157550000Y-124975000D03*
X158050000Y-124975000D03*
X158550000Y-124975000D03*
X159050000Y-124975000D03*
X159550000Y-124975000D03*
X160050000Y-124975000D03*
X160550000Y-124975000D03*
X161050000Y-124975000D03*
D19*
X162975000Y-123050000D03*
X162975000Y-122550000D03*
X162975000Y-122050000D03*
X162975000Y-121550000D03*
X162975000Y-121050000D03*
X162975000Y-120550000D03*
X162975000Y-120050000D03*
X162975000Y-119550000D03*
X162975000Y-119050000D03*
X162975000Y-118550000D03*
X162975000Y-118050000D03*
X162975000Y-117550000D03*
X162975000Y-117050000D03*
X162975000Y-116550000D03*
X162975000Y-116050000D03*
X162975000Y-115550000D03*
D20*
X161050000Y-113625000D03*
X160550000Y-113625000D03*
X160050000Y-113625000D03*
X159550000Y-113625000D03*
X159050000Y-113625000D03*
X158550000Y-113625000D03*
X158050000Y-113625000D03*
X157550000Y-113625000D03*
X157050000Y-113625000D03*
X156550000Y-113625000D03*
X156050000Y-113625000D03*
X155550000Y-113625000D03*
X155050000Y-113625000D03*
X154550000Y-113625000D03*
X154050000Y-113625000D03*
X153550000Y-113625000D03*
%TD*%
D17*
%TO.C,R301*%
X155662500Y-131650000D03*
X153837500Y-131650000D03*
%TD*%
D12*
%TO.C,C503*%
X120837500Y-114500000D03*
X122562500Y-114500000D03*
%TD*%
D21*
%TO.C,PS501*%
X125650000Y-114550000D03*
X125650000Y-115500000D03*
X125650000Y-116450000D03*
X128150000Y-116450000D03*
X128150000Y-114550000D03*
%TD*%
D22*
%TO.C,U301*%
X138095000Y-134875000D03*
X139365000Y-134875000D03*
X140635000Y-134875000D03*
X141905000Y-134875000D03*
X141905000Y-129725000D03*
X140635000Y-129725000D03*
X139365000Y-129725000D03*
X138095000Y-129725000D03*
%TD*%
D11*
%TO.C,R401*%
X177300000Y-104287500D03*
X177300000Y-106112500D03*
%TD*%
D10*
%TO.C,C202*%
X143750000Y-122087500D03*
X143750000Y-123812500D03*
%TD*%
D23*
%TO.C,S201*%
X193050000Y-107077500D03*
X202150000Y-107077500D03*
X193050000Y-111577500D03*
X202150000Y-111577500D03*
%TD*%
D15*
%TO.C,C306*%
X169750000Y-139787500D03*
X169750000Y-141512500D03*
%TD*%
D24*
%TO.C,IC501*%
X117400000Y-115300000D03*
D25*
X111200000Y-117600000D03*
X111200000Y-115300000D03*
X111200000Y-113000000D03*
%TD*%
D10*
%TO.C,C310*%
X161550000Y-141525000D03*
X161550000Y-139800000D03*
%TD*%
%TO.C,C307*%
X135250000Y-129662500D03*
X135250000Y-127937500D03*
%TD*%
D22*
%TO.C,U302*%
X166395000Y-135675000D03*
X167665000Y-135675000D03*
X168935000Y-135675000D03*
X170205000Y-135675000D03*
X170205000Y-130525000D03*
X168935000Y-130525000D03*
X167665000Y-130525000D03*
X166395000Y-130525000D03*
%TD*%
D15*
%TO.C,C504*%
X130800000Y-116262500D03*
X130800000Y-114537500D03*
%TD*%
D16*
%TO.C,C309*%
X136337500Y-137900000D03*
X138062500Y-137900000D03*
%TD*%
D10*
%TO.C,C501*%
X107400000Y-112975000D03*
X107400000Y-111250000D03*
%TD*%
D14*
%TO.C,R501*%
X104600000Y-129037500D03*
X104600000Y-130862500D03*
%TD*%
D12*
%TO.C,C305*%
X132962500Y-134400000D03*
X131237500Y-134400000D03*
%TD*%
D16*
%TO.C,C303*%
X140537500Y-138000000D03*
X142262500Y-138000000D03*
%TD*%
D26*
%TO.C,D202*%
X153900000Y-129875000D03*
X153900000Y-128125000D03*
%TD*%
D11*
%TO.C,R503*%
X113300000Y-126012500D03*
X113300000Y-124187500D03*
%TD*%
D15*
%TO.C,C302*%
X124600000Y-139137500D03*
X124600000Y-140862500D03*
%TD*%
D17*
%TO.C,R201*%
X194987500Y-119000000D03*
X196812500Y-119000000D03*
%TD*%
D27*
%TO.C,D201*%
X195025000Y-117200000D03*
X196775000Y-117200000D03*
%TD*%
D12*
%TO.C,C203*%
X146187500Y-120050000D03*
X147912500Y-120050000D03*
%TD*%
D10*
%TO.C,C206*%
X145650000Y-118075000D03*
X145650000Y-116350000D03*
%TD*%
M02*
