%TF.GenerationSoftware,KiCad,Pcbnew,(6.0.7)*%
%TF.CreationDate,2022-10-27T14:16:22+02:00*%
%TF.ProjectId,Projet,50726f6a-6574-42e6-9b69-6361645f7063,1.0*%
%TF.SameCoordinates,Original*%
%TF.FileFunction,Soldermask,Bot*%
%TF.FilePolarity,Negative*%
%FSLAX46Y46*%
G04 Gerber Fmt 4.6, Leading zero omitted, Abs format (unit mm)*
G04 Created by KiCad (PCBNEW (6.0.7)) date 2022-10-27 14:16:22*
%MOMM*%
%LPD*%
G01*
G04 APERTURE LIST*
G04 Aperture macros list*
%AMRoundRect*
0 Rectangle with rounded corners*
0 $1 Rounding radius*
0 $2 $3 $4 $5 $6 $7 $8 $9 X,Y pos of 4 corners*
0 Add a 4 corners polygon primitive as box body*
4,1,4,$2,$3,$4,$5,$6,$7,$8,$9,$2,$3,0*
0 Add four circle primitives for the rounded corners*
1,1,$1+$1,$2,$3*
1,1,$1+$1,$4,$5*
1,1,$1+$1,$6,$7*
1,1,$1+$1,$8,$9*
0 Add four rect primitives between the rounded corners*
20,1,$1+$1,$2,$3,$4,$5,0*
20,1,$1+$1,$4,$5,$6,$7,0*
20,1,$1+$1,$6,$7,$8,$9,0*
20,1,$1+$1,$8,$9,$2,$3,0*%
G04 Aperture macros list end*
%ADD10O,1.950000X1.700000*%
%ADD11RoundRect,0.250000X0.725000X-0.600000X0.725000X0.600000X-0.725000X0.600000X-0.725000X-0.600000X0*%
%ADD12R,2.775000X2.775000*%
%ADD13C,2.775000*%
%ADD14RoundRect,0.250000X0.600000X0.725000X-0.600000X0.725000X-0.600000X-0.725000X0.600000X-0.725000X0*%
%ADD15O,1.700000X1.950000*%
%ADD16C,0.800000*%
%ADD17C,6.400000*%
%ADD18RoundRect,0.250000X-0.600000X-0.725000X0.600000X-0.725000X0.600000X0.725000X-0.600000X0.725000X0*%
%ADD19R,1.700000X1.700000*%
%ADD20O,1.700000X1.700000*%
%ADD21RoundRect,0.250000X0.750000X-0.600000X0.750000X0.600000X-0.750000X0.600000X-0.750000X-0.600000X0*%
%ADD22O,2.000000X1.700000*%
%ADD23C,1.600000*%
%ADD24R,1.600000X1.600000*%
G04 APERTURE END LIST*
D10*
%TO.C,J601*%
X200775000Y-125700000D03*
X200775000Y-128200000D03*
X200775000Y-130700000D03*
D11*
X200775000Y-133200000D03*
%TD*%
D12*
%TO.C,S501*%
X99300000Y-130700000D03*
D13*
X99300000Y-126000000D03*
X99300000Y-121300000D03*
%TD*%
D14*
%TO.C,J302*%
X176500000Y-147525000D03*
D15*
X174000000Y-147525000D03*
X171500000Y-147525000D03*
X169000000Y-147525000D03*
X166500000Y-147525000D03*
X164000000Y-147525000D03*
%TD*%
D14*
%TO.C,J301*%
X152050000Y-147425000D03*
D15*
X149550000Y-147425000D03*
X147050000Y-147425000D03*
X144550000Y-147425000D03*
X142050000Y-147425000D03*
X139550000Y-147425000D03*
%TD*%
D11*
%TO.C,J401*%
X192200000Y-148200000D03*
D10*
X192200000Y-145700000D03*
X192200000Y-143200000D03*
%TD*%
D16*
%TO.C,H103*%
X200000000Y-137600000D03*
X198302944Y-138302944D03*
X201697056Y-141697056D03*
D17*
X200000000Y-140000000D03*
D16*
X198302944Y-141697056D03*
X201697056Y-138302944D03*
X197600000Y-140000000D03*
X200000000Y-142400000D03*
X202400000Y-140000000D03*
%TD*%
D11*
%TO.C,J404*%
X109775000Y-147400000D03*
D10*
X109775000Y-144900000D03*
X109775000Y-142400000D03*
%TD*%
D18*
%TO.C,J303*%
X126200000Y-146400000D03*
D15*
X128700000Y-146400000D03*
X131200000Y-146400000D03*
%TD*%
D19*
%TO.C,J502*%
X201800000Y-119925000D03*
D20*
X201800000Y-117385000D03*
X201800000Y-114845000D03*
%TD*%
D16*
%TO.C,H104*%
X197600000Y-100000000D03*
X198302944Y-98302944D03*
X198302944Y-101697056D03*
X202400000Y-100000000D03*
X201697056Y-98302944D03*
X200000000Y-97600000D03*
D17*
X200000000Y-100000000D03*
D16*
X201697056Y-101697056D03*
X200000000Y-102400000D03*
%TD*%
D21*
%TO.C,J501*%
X99675000Y-112350000D03*
D22*
X99675000Y-109850000D03*
%TD*%
D16*
%TO.C,H102*%
X100000000Y-137600000D03*
X98302944Y-141697056D03*
X100000000Y-142400000D03*
X102400000Y-140000000D03*
X97600000Y-140000000D03*
X101697056Y-141697056D03*
X98302944Y-138302944D03*
D17*
X100000000Y-140000000D03*
D16*
X101697056Y-138302944D03*
%TD*%
D14*
%TO.C,J406*%
X126100000Y-100625000D03*
D15*
X123600000Y-100625000D03*
X121100000Y-100625000D03*
X118600000Y-100625000D03*
X116100000Y-100625000D03*
X113600000Y-100625000D03*
X111100000Y-100625000D03*
%TD*%
D14*
%TO.C,J405*%
X187300000Y-100425000D03*
D15*
X184800000Y-100425000D03*
X182300000Y-100425000D03*
X179800000Y-100425000D03*
X177300000Y-100425000D03*
X174800000Y-100425000D03*
X172300000Y-100425000D03*
%TD*%
D23*
%TO.C,C301*%
X109517621Y-126000000D03*
D24*
X107017621Y-126000000D03*
%TD*%
D18*
%TO.C,J403*%
X152500000Y-99500000D03*
D15*
X155000000Y-99500000D03*
X157500000Y-99500000D03*
X160000000Y-99500000D03*
X162500000Y-99500000D03*
%TD*%
D18*
%TO.C,J402*%
X134500000Y-99575000D03*
D15*
X137000000Y-99575000D03*
X139500000Y-99575000D03*
X142000000Y-99575000D03*
X144500000Y-99575000D03*
%TD*%
D16*
%TO.C,H101*%
X97600000Y-100000000D03*
X101697056Y-98302944D03*
X98302944Y-101697056D03*
X98302944Y-98302944D03*
X101697056Y-101697056D03*
D17*
X100000000Y-100000000D03*
D16*
X100000000Y-97600000D03*
X102400000Y-100000000D03*
X100000000Y-102400000D03*
%TD*%
M02*
