M48
; DRILL file {KiCad (6.0.7)} date Thu Oct 27 14:15:49 2022
; FORMAT={-:-/ absolute / inch / decimal}
; #@! TF.CreationDate,2022-10-27T14:15:49+02:00
; #@! TF.GenerationSoftware,Kicad,Pcbnew,(6.0.7)
; #@! TF.FileFunction,Plated,1,4,PTH
FMAT,2
INCH
; #@! TA.AperFunction,Plated,PTH,ViaDrill
T1C0.0118
; #@! TA.AperFunction,Plated,PTH,ViaDrill
T2C0.0157
; #@! TA.AperFunction,Plated,PTH,ComponentDrill
T3C0.0197
; #@! TA.AperFunction,Plated,PTH,ComponentDrill
T4C0.0315
; #@! TA.AperFunction,Plated,PTH,ComponentDrill
T5C0.0374
; #@! TA.AperFunction,Plated,PTH,ComponentDrill
T6C0.0394
; #@! TA.AperFunction,Plated,PTH,ComponentDrill
T7C0.0728
; #@! TA.AperFunction,Plated,PTH,ComponentDrill
T8C0.1260
%
G90
G05
T1
X4.3976Y-4.8031
X4.6969Y-4.5079
X4.9882Y-4.4173
X5.1024Y-5.4173
X5.2953Y-4.0118
X5.3228Y-5.7126
X5.6024Y-5.3898
X6.0157Y-4.9882
X6.0354Y-4.7638
X6.2244Y-5.0236
X6.2283Y-5.3977
X6.2933Y-5.4213
X6.3014Y-5.049
X6.3504Y-5.4173
X6.4016Y-5.1103
X6.4882Y-5.3661
X6.6299Y-4.5118
X6.6969Y-5.0118
X6.8031Y-4.4331
X6.8071Y-4.6378
X6.8228Y-5.0118
X6.8386Y-4.7185
X6.8622Y-4.437
X6.8622Y-4.752
X6.874Y-5.5335
X7.0748Y-5.3366
X7.1299Y-4.1063
X7.1614Y-5.0748
X7.2047Y-4.2756
X7.5079Y-4.2146
X7.8189Y-5.0413
T2
X4.1142Y-5.7283
X4.1732Y-5.7992
X4.2126Y-5.4154
X4.3071Y-4.6339
X4.3937Y-4.9606
X4.6181Y-4.1969
X4.9213Y-5.6063
X5.0669Y-5.6299
X5.252Y-4.5079
X5.378Y-5.1063
X5.4862Y-5.0315
X5.689Y-3.9921
X5.7908Y-4.6481
X5.7913Y-4.5807
X5.8858Y-4.0945
X5.9685Y-4.9843
X5.9843Y-5.4823
X6.0591Y-4.1102
X6.0591Y-5.2283
X6.1614Y-4.3701
X6.185Y-4.9882
X6.2244Y-5.1811
X6.311Y-4.2046
X6.3604Y-5.6258
X6.5543Y-5.4339
X6.5846Y-5.624
X6.8366Y-5.4941
X7.0276Y-4.1772
X7.2795Y-4.6024
X7.4173Y-5.7441
X7.5039Y-4.3937
X7.5669Y-5.1693
X7.748Y-5.1457
X8.063Y-4.7953
T3
X3.8425Y-3.937
X3.8425Y-5.5118
X3.8702Y-3.8702
X3.8702Y-4.0038
X3.8702Y-5.445
X3.8702Y-5.5786
X3.937Y-3.8425
X3.937Y-4.0315
X3.937Y-5.4173
X3.937Y-5.6063
X4.0038Y-3.8702
X4.0038Y-4.0038
X4.0038Y-5.445
X4.0038Y-5.5786
X4.0315Y-3.937
X4.0315Y-5.5118
X7.7795Y-3.937
X7.7795Y-5.5118
X7.8072Y-3.8702
X7.8072Y-4.0038
X7.8072Y-5.445
X7.8072Y-5.5786
X7.874Y-3.8425
X7.874Y-4.0315
X7.874Y-5.4173
X7.874Y-5.6063
X7.9408Y-3.8702
X7.9408Y-4.0038
X7.9408Y-5.445
X7.9408Y-5.5786
X7.9685Y-3.937
X7.9685Y-5.5118
T4
X4.2133Y-4.9606
X4.3117Y-4.9606
T5
X4.3219Y-5.6063
X4.3219Y-5.7047
X4.3219Y-5.8031
X4.374Y-3.9616
X4.4724Y-3.9616
X4.5709Y-3.9616
X4.6693Y-3.9616
X4.7677Y-3.9616
X4.8661Y-3.9616
X4.9646Y-3.9616
X4.9685Y-5.7638
X5.0669Y-5.7638
X5.1654Y-5.7638
X5.2953Y-3.9203
X5.3937Y-3.9203
X5.4921Y-3.9203
X5.4941Y-5.8041
X5.5906Y-3.9203
X5.5925Y-5.8041
X5.689Y-3.9203
X5.6909Y-5.8041
X5.7894Y-5.8041
X5.8878Y-5.8041
X5.9862Y-5.8041
X6.0039Y-3.9173
X6.1024Y-3.9173
X6.2008Y-3.9173
X6.2992Y-3.9173
X6.3976Y-3.9173
X6.4567Y-5.8081
X6.5551Y-5.8081
X6.6535Y-5.8081
X6.752Y-5.8081
X6.7835Y-3.9537
X6.8504Y-5.8081
X6.8819Y-3.9537
X6.9488Y-5.8081
X6.9803Y-3.9537
X7.0787Y-3.9537
X7.1772Y-3.9537
X7.2756Y-3.9537
X7.374Y-3.9537
X7.5669Y-5.6378
X7.5669Y-5.7362
X7.5669Y-5.8346
X7.9045Y-4.9488
X7.9045Y-5.0472
X7.9045Y-5.1457
X7.9045Y-5.2441
T6
X3.9242Y-4.3248
X3.9242Y-4.4232
X7.9449Y-4.5215
X7.9449Y-4.6215
X7.9449Y-4.7215
T7
X3.9094Y-4.7756
X3.9094Y-4.9606
X3.9094Y-5.1457
T8
X3.937Y-3.937
X3.937Y-5.5118
X7.874Y-3.937
X7.874Y-5.5118
T0
M30
