%TF.GenerationSoftware,KiCad,Pcbnew,(6.0.7)*%
%TF.CreationDate,2022-10-27T14:15:55+02:00*%
%TF.ProjectId,Projet,50726f6a-6574-42e6-9b69-6361645f7063,1.0*%
%TF.SameCoordinates,Original*%
%TF.FileFunction,Drillmap*%
%TF.FilePolarity,Positive*%
%FSLAX45Y45*%
G04 Gerber Fmt 4.5, Leading zero omitted, Abs format (unit mm)*
G04 Created by KiCad (PCBNEW (6.0.7)) date 2022-10-27 14:15:55*
%MOMM*%
%LPD*%
G01*
G04 APERTURE LIST*
%ADD10C,0.100000*%
%ADD11C,0.200000*%
%ADD12C,0.030000*%
%ADD13C,0.040000*%
%ADD14C,0.050000*%
%ADD15C,0.080000*%
%ADD16C,0.095000*%
%ADD17C,0.185000*%
%ADD18C,0.320000*%
G04 APERTURE END LIST*
D10*
X20300000Y-15199998D02*
G75*
G03*
X20809998Y-14690000I0J509998D01*
G01*
X20000000Y-15200000D02*
X20300000Y-15200000D01*
X20800000Y-10000000D02*
G75*
G03*
X20300000Y-9500000I-500000J0D01*
G01*
X20000000Y-9500000D02*
X20300000Y-9500000D01*
X9500000Y-14700000D02*
G75*
G03*
X10000000Y-15200000I500000J0D01*
G01*
X9500000Y-14000000D02*
X9500000Y-14700000D01*
X20800000Y-10000000D02*
X20809998Y-14690000D01*
X9500000Y-14000000D02*
X9500000Y-10000000D01*
X10000000Y-9500000D02*
G75*
G03*
X9500000Y-10000000I0J-500000D01*
G01*
X10000000Y-15200000D02*
X20000000Y-15200000D01*
X10000000Y-9500000D02*
X20000000Y-9500000D01*
D11*
D12*
X11155000Y-12185000D02*
X11185000Y-12215000D01*
X11185000Y-12185000D02*
X11155000Y-12215000D01*
X11915000Y-11435000D02*
X11945000Y-11465000D01*
X11945000Y-11435000D02*
X11915000Y-11465000D01*
X12655000Y-11205000D02*
X12685000Y-11235000D01*
X12685000Y-11205000D02*
X12655000Y-11235000D01*
X12945000Y-13745000D02*
X12975000Y-13775000D01*
X12975000Y-13745000D02*
X12945000Y-13775000D01*
X13435000Y-10175000D02*
X13465000Y-10205000D01*
X13465000Y-10175000D02*
X13435000Y-10205000D01*
X13505000Y-14495000D02*
X13535000Y-14525000D01*
X13535000Y-14495000D02*
X13505000Y-14525000D01*
X14215000Y-13675000D02*
X14245000Y-13705000D01*
X14245000Y-13675000D02*
X14215000Y-13705000D01*
X15265000Y-12655000D02*
X15295000Y-12685000D01*
X15295000Y-12655000D02*
X15265000Y-12685000D01*
X15315000Y-12085000D02*
X15345000Y-12115000D01*
X15345000Y-12085000D02*
X15315000Y-12115000D01*
X15795000Y-12745000D02*
X15825000Y-12775000D01*
X15825000Y-12745000D02*
X15795000Y-12775000D01*
X15805000Y-13695050D02*
X15835000Y-13725050D01*
X15835000Y-13695050D02*
X15805000Y-13725050D01*
X15970000Y-13755000D02*
X16000000Y-13785000D01*
X16000000Y-13755000D02*
X15970000Y-13785000D01*
X15990510Y-12809485D02*
X16020510Y-12839485D01*
X16020510Y-12809485D02*
X15990510Y-12839485D01*
X16115000Y-13745000D02*
X16145000Y-13775000D01*
X16145000Y-13745000D02*
X16115000Y-13775000D01*
X16245000Y-12965050D02*
X16275000Y-12995050D01*
X16275000Y-12965050D02*
X16245000Y-12995050D01*
X16465000Y-13615000D02*
X16495000Y-13645000D01*
X16495000Y-13615000D02*
X16465000Y-13645000D01*
X16825000Y-11445000D02*
X16855000Y-11475000D01*
X16855000Y-11445000D02*
X16825000Y-11475000D01*
X16995000Y-12715000D02*
X17025000Y-12745000D01*
X17025000Y-12715000D02*
X16995000Y-12745000D01*
X17265000Y-11245000D02*
X17295000Y-11275000D01*
X17295000Y-11245000D02*
X17265000Y-11275000D01*
X17275000Y-11765000D02*
X17305000Y-11795000D01*
X17305000Y-11765000D02*
X17275000Y-11795000D01*
X17315000Y-12715000D02*
X17345000Y-12745000D01*
X17345000Y-12715000D02*
X17315000Y-12745000D01*
X17355000Y-11970050D02*
X17385000Y-12000050D01*
X17385000Y-11970050D02*
X17355000Y-12000050D01*
X17415000Y-11255000D02*
X17445000Y-11285000D01*
X17445000Y-11255000D02*
X17415000Y-11285000D01*
X17415000Y-12055000D02*
X17445000Y-12085000D01*
X17445000Y-12055000D02*
X17415000Y-12085000D01*
X17445000Y-14040000D02*
X17475000Y-14070000D01*
X17475000Y-14040000D02*
X17445000Y-14070000D01*
X17955000Y-13540000D02*
X17985000Y-13570000D01*
X17985000Y-13540000D02*
X17955000Y-13570000D01*
X18095000Y-10415000D02*
X18125000Y-10445000D01*
X18125000Y-10415000D02*
X18095000Y-10445000D01*
X18175000Y-12875000D02*
X18205000Y-12905000D01*
X18205000Y-12875000D02*
X18175000Y-12905000D01*
X18285000Y-10845000D02*
X18315000Y-10875000D01*
X18315000Y-10845000D02*
X18285000Y-10875000D01*
X19055000Y-10690000D02*
X19085000Y-10720000D01*
X19085000Y-10690000D02*
X19055000Y-10720000D01*
X19845000Y-12790000D02*
X19875000Y-12820000D01*
X19875000Y-12790000D02*
X19845000Y-12820000D01*
D13*
X10470000Y-14550000D02*
G75*
G03*
X10470000Y-14550000I-20000J0D01*
G01*
X10620000Y-14730000D02*
G75*
G03*
X10620000Y-14730000I-20000J0D01*
G01*
X10720000Y-13755000D02*
G75*
G03*
X10720000Y-13755000I-20000J0D01*
G01*
X10960000Y-11770000D02*
G75*
G03*
X10960000Y-11770000I-20000J0D01*
G01*
X11180000Y-12600000D02*
G75*
G03*
X11180000Y-12600000I-20000J0D01*
G01*
X11750000Y-10660000D02*
G75*
G03*
X11750000Y-10660000I-20000J0D01*
G01*
X12520000Y-14240000D02*
G75*
G03*
X12520000Y-14240000I-20000J0D01*
G01*
X12890000Y-14300000D02*
G75*
G03*
X12890000Y-14300000I-20000J0D01*
G01*
X13360000Y-11450000D02*
G75*
G03*
X13360000Y-11450000I-20000J0D01*
G01*
X13680000Y-12970000D02*
G75*
G03*
X13680000Y-12970000I-20000J0D01*
G01*
X13955000Y-12780000D02*
G75*
G03*
X13955000Y-12780000I-20000J0D01*
G01*
X14470000Y-10140000D02*
G75*
G03*
X14470000Y-10140000I-20000J0D01*
G01*
X14728750Y-11806250D02*
G75*
G03*
X14728750Y-11806250I-20000J0D01*
G01*
X14730000Y-11635000D02*
G75*
G03*
X14730000Y-11635000I-20000J0D01*
G01*
X14970000Y-10400000D02*
G75*
G03*
X14970000Y-10400000I-20000J0D01*
G01*
X15180000Y-12660000D02*
G75*
G03*
X15180000Y-12660000I-20000J0D01*
G01*
X15220000Y-13924950D02*
G75*
G03*
X15220000Y-13924950I-20000J0D01*
G01*
X15410000Y-10440000D02*
G75*
G03*
X15410000Y-10440000I-20000J0D01*
G01*
X15410000Y-13280000D02*
G75*
G03*
X15410000Y-13280000I-20000J0D01*
G01*
X15670000Y-11100000D02*
G75*
G03*
X15670000Y-11100000I-20000J0D01*
G01*
X15730000Y-12670000D02*
G75*
G03*
X15730000Y-12670000I-20000J0D01*
G01*
X15830000Y-13160000D02*
G75*
G03*
X15830000Y-13160000I-20000J0D01*
G01*
X16049950Y-10679642D02*
G75*
G03*
X16049950Y-10679642I-20000J0D01*
G01*
X16175498Y-14289502D02*
G75*
G03*
X16175498Y-14289502I-20000J0D01*
G01*
X16667998Y-13802002D02*
G75*
G03*
X16667998Y-13802002I-20000J0D01*
G01*
X16745000Y-14285000D02*
G75*
G03*
X16745000Y-14285000I-20000J0D01*
G01*
X17385000Y-13955000D02*
G75*
G03*
X17385000Y-13955000I-20000J0D01*
G01*
X17870000Y-10610000D02*
G75*
G03*
X17870000Y-10610000I-20000J0D01*
G01*
X18510000Y-11690000D02*
G75*
G03*
X18510000Y-11690000I-20000J0D01*
G01*
X18860000Y-14590000D02*
G75*
G03*
X18860000Y-14590000I-20000J0D01*
G01*
X19080000Y-11160000D02*
G75*
G03*
X19080000Y-11160000I-20000J0D01*
G01*
X19240000Y-13130000D02*
G75*
G03*
X19240000Y-13130000I-20000J0D01*
G01*
X19700000Y-13070000D02*
G75*
G03*
X19700000Y-13070000I-20000J0D01*
G01*
X20500000Y-12180000D02*
G75*
G03*
X20500000Y-12180000I-20000J0D01*
G01*
D14*
X9760000Y-9975000D02*
X9760000Y-10025000D01*
X9735000Y-10000000D02*
X9785000Y-10000000D01*
X9760000Y-13975000D02*
X9760000Y-14025000D01*
X9735000Y-14000000D02*
X9785000Y-14000000D01*
X9830294Y-9805294D02*
X9830294Y-9855294D01*
X9805294Y-9830294D02*
X9855294Y-9830294D01*
X9830294Y-10144706D02*
X9830294Y-10194706D01*
X9805294Y-10169706D02*
X9855294Y-10169706D01*
X9830294Y-13805294D02*
X9830294Y-13855294D01*
X9805294Y-13830294D02*
X9855294Y-13830294D01*
X9830294Y-14144706D02*
X9830294Y-14194706D01*
X9805294Y-14169706D02*
X9855294Y-14169706D01*
X10000000Y-9735000D02*
X10000000Y-9785000D01*
X9975000Y-9760000D02*
X10025000Y-9760000D01*
X10000000Y-10215000D02*
X10000000Y-10265000D01*
X9975000Y-10240000D02*
X10025000Y-10240000D01*
X10000000Y-13735000D02*
X10000000Y-13785000D01*
X9975000Y-13760000D02*
X10025000Y-13760000D01*
X10000000Y-14215000D02*
X10000000Y-14265000D01*
X9975000Y-14240000D02*
X10025000Y-14240000D01*
X10169706Y-9805294D02*
X10169706Y-9855294D01*
X10144706Y-9830294D02*
X10194706Y-9830294D01*
X10169706Y-10144706D02*
X10169706Y-10194706D01*
X10144706Y-10169706D02*
X10194706Y-10169706D01*
X10169706Y-13805294D02*
X10169706Y-13855294D01*
X10144706Y-13830294D02*
X10194706Y-13830294D01*
X10169706Y-14144706D02*
X10169706Y-14194706D01*
X10144706Y-14169706D02*
X10194706Y-14169706D01*
X10240000Y-9975000D02*
X10240000Y-10025000D01*
X10215000Y-10000000D02*
X10265000Y-10000000D01*
X10240000Y-13975000D02*
X10240000Y-14025000D01*
X10215000Y-14000000D02*
X10265000Y-14000000D01*
X19760000Y-9975000D02*
X19760000Y-10025000D01*
X19735000Y-10000000D02*
X19785000Y-10000000D01*
X19760000Y-13975000D02*
X19760000Y-14025000D01*
X19735000Y-14000000D02*
X19785000Y-14000000D01*
X19830294Y-9805294D02*
X19830294Y-9855294D01*
X19805294Y-9830294D02*
X19855294Y-9830294D01*
X19830294Y-10144706D02*
X19830294Y-10194706D01*
X19805294Y-10169706D02*
X19855294Y-10169706D01*
X19830294Y-13805294D02*
X19830294Y-13855294D01*
X19805294Y-13830294D02*
X19855294Y-13830294D01*
X19830294Y-14144706D02*
X19830294Y-14194706D01*
X19805294Y-14169706D02*
X19855294Y-14169706D01*
X20000000Y-9735000D02*
X20000000Y-9785000D01*
X19975000Y-9760000D02*
X20025000Y-9760000D01*
X20000000Y-10215000D02*
X20000000Y-10265000D01*
X19975000Y-10240000D02*
X20025000Y-10240000D01*
X20000000Y-13735000D02*
X20000000Y-13785000D01*
X19975000Y-13760000D02*
X20025000Y-13760000D01*
X20000000Y-14215000D02*
X20000000Y-14265000D01*
X19975000Y-14240000D02*
X20025000Y-14240000D01*
X20169706Y-9805294D02*
X20169706Y-9855294D01*
X20144706Y-9830294D02*
X20194706Y-9830294D01*
X20169706Y-10144706D02*
X20169706Y-10194706D01*
X20144706Y-10169706D02*
X20194706Y-10169706D01*
X20169706Y-13805294D02*
X20169706Y-13855294D01*
X20144706Y-13830294D02*
X20194706Y-13830294D01*
X20169706Y-14144706D02*
X20169706Y-14194706D01*
X20144706Y-14169706D02*
X20194706Y-14169706D01*
X20240000Y-9975000D02*
X20240000Y-10025000D01*
X20215000Y-10000000D02*
X20265000Y-10000000D01*
X20240000Y-13975000D02*
X20240000Y-14025000D01*
X20215000Y-14000000D02*
X20265000Y-14000000D01*
D15*
X10730047Y-12628284D02*
X10730047Y-12571715D01*
X10673478Y-12571715D01*
X10673478Y-12628284D01*
X10730047Y-12628284D01*
X10980047Y-12628284D02*
X10980047Y-12571715D01*
X10923478Y-12571715D01*
X10923478Y-12628284D01*
X10980047Y-12628284D01*
D16*
X10977500Y-14287500D02*
X11025000Y-14240000D01*
X10977500Y-14192500D01*
X10930000Y-14240000D01*
X10977500Y-14287500D01*
X10977500Y-14537500D02*
X11025000Y-14490000D01*
X10977500Y-14442500D01*
X10930000Y-14490000D01*
X10977500Y-14537500D01*
X10977500Y-14787500D02*
X11025000Y-14740000D01*
X10977500Y-14692500D01*
X10930000Y-14740000D01*
X10977500Y-14787500D01*
X11110000Y-10110000D02*
X11157500Y-10062500D01*
X11110000Y-10015000D01*
X11062500Y-10062500D01*
X11110000Y-10110000D01*
X11360000Y-10110000D02*
X11407500Y-10062500D01*
X11360000Y-10015000D01*
X11312500Y-10062500D01*
X11360000Y-10110000D01*
X11610000Y-10110000D02*
X11657500Y-10062500D01*
X11610000Y-10015000D01*
X11562500Y-10062500D01*
X11610000Y-10110000D01*
X11860000Y-10110000D02*
X11907500Y-10062500D01*
X11860000Y-10015000D01*
X11812500Y-10062500D01*
X11860000Y-10110000D01*
X12110000Y-10110000D02*
X12157500Y-10062500D01*
X12110000Y-10015000D01*
X12062500Y-10062500D01*
X12110000Y-10110000D01*
X12360000Y-10110000D02*
X12407500Y-10062500D01*
X12360000Y-10015000D01*
X12312500Y-10062500D01*
X12360000Y-10110000D01*
X12610000Y-10110000D02*
X12657500Y-10062500D01*
X12610000Y-10015000D01*
X12562500Y-10062500D01*
X12610000Y-10110000D01*
X12620000Y-14687500D02*
X12667500Y-14640000D01*
X12620000Y-14592500D01*
X12572500Y-14640000D01*
X12620000Y-14687500D01*
X12870000Y-14687500D02*
X12917500Y-14640000D01*
X12870000Y-14592500D01*
X12822500Y-14640000D01*
X12870000Y-14687500D01*
X13120000Y-14687500D02*
X13167500Y-14640000D01*
X13120000Y-14592500D01*
X13072500Y-14640000D01*
X13120000Y-14687500D01*
X13450000Y-10005000D02*
X13497500Y-9957500D01*
X13450000Y-9910000D01*
X13402500Y-9957500D01*
X13450000Y-10005000D01*
X13700000Y-10005000D02*
X13747500Y-9957500D01*
X13700000Y-9910000D01*
X13652500Y-9957500D01*
X13700000Y-10005000D01*
X13950000Y-10005000D02*
X13997500Y-9957500D01*
X13950000Y-9910000D01*
X13902500Y-9957500D01*
X13950000Y-10005000D01*
X13955000Y-14790000D02*
X14002500Y-14742500D01*
X13955000Y-14695000D01*
X13907500Y-14742500D01*
X13955000Y-14790000D01*
X14200000Y-10005000D02*
X14247500Y-9957500D01*
X14200000Y-9910000D01*
X14152500Y-9957500D01*
X14200000Y-10005000D01*
X14205000Y-14790000D02*
X14252500Y-14742500D01*
X14205000Y-14695000D01*
X14157500Y-14742500D01*
X14205000Y-14790000D01*
X14450000Y-10005000D02*
X14497500Y-9957500D01*
X14450000Y-9910000D01*
X14402500Y-9957500D01*
X14450000Y-10005000D01*
X14455000Y-14790000D02*
X14502500Y-14742500D01*
X14455000Y-14695000D01*
X14407500Y-14742500D01*
X14455000Y-14790000D01*
X14705000Y-14790000D02*
X14752500Y-14742500D01*
X14705000Y-14695000D01*
X14657500Y-14742500D01*
X14705000Y-14790000D01*
X14955000Y-14790000D02*
X15002500Y-14742500D01*
X14955000Y-14695000D01*
X14907500Y-14742500D01*
X14955000Y-14790000D01*
X15205000Y-14790000D02*
X15252500Y-14742500D01*
X15205000Y-14695000D01*
X15157500Y-14742500D01*
X15205000Y-14790000D01*
X15250000Y-9997500D02*
X15297500Y-9950000D01*
X15250000Y-9902500D01*
X15202500Y-9950000D01*
X15250000Y-9997500D01*
X15500000Y-9997500D02*
X15547500Y-9950000D01*
X15500000Y-9902500D01*
X15452500Y-9950000D01*
X15500000Y-9997500D01*
X15750000Y-9997500D02*
X15797500Y-9950000D01*
X15750000Y-9902500D01*
X15702500Y-9950000D01*
X15750000Y-9997500D01*
X16000000Y-9997500D02*
X16047500Y-9950000D01*
X16000000Y-9902500D01*
X15952500Y-9950000D01*
X16000000Y-9997500D01*
X16250000Y-9997500D02*
X16297500Y-9950000D01*
X16250000Y-9902500D01*
X16202500Y-9950000D01*
X16250000Y-9997500D01*
X16400000Y-14800000D02*
X16447500Y-14752500D01*
X16400000Y-14705000D01*
X16352500Y-14752500D01*
X16400000Y-14800000D01*
X16650000Y-14800000D02*
X16697500Y-14752500D01*
X16650000Y-14705000D01*
X16602500Y-14752500D01*
X16650000Y-14800000D01*
X16900000Y-14800000D02*
X16947500Y-14752500D01*
X16900000Y-14705000D01*
X16852500Y-14752500D01*
X16900000Y-14800000D01*
X17150000Y-14800000D02*
X17197500Y-14752500D01*
X17150000Y-14705000D01*
X17102500Y-14752500D01*
X17150000Y-14800000D01*
X17230000Y-10090000D02*
X17277500Y-10042500D01*
X17230000Y-9995000D01*
X17182500Y-10042500D01*
X17230000Y-10090000D01*
X17400000Y-14800000D02*
X17447500Y-14752500D01*
X17400000Y-14705000D01*
X17352500Y-14752500D01*
X17400000Y-14800000D01*
X17480000Y-10090000D02*
X17527500Y-10042500D01*
X17480000Y-9995000D01*
X17432500Y-10042500D01*
X17480000Y-10090000D01*
X17650000Y-14800000D02*
X17697500Y-14752500D01*
X17650000Y-14705000D01*
X17602500Y-14752500D01*
X17650000Y-14800000D01*
X17730000Y-10090000D02*
X17777500Y-10042500D01*
X17730000Y-9995000D01*
X17682500Y-10042500D01*
X17730000Y-10090000D01*
X17980000Y-10090000D02*
X18027500Y-10042500D01*
X17980000Y-9995000D01*
X17932500Y-10042500D01*
X17980000Y-10090000D01*
X18230000Y-10090000D02*
X18277500Y-10042500D01*
X18230000Y-9995000D01*
X18182500Y-10042500D01*
X18230000Y-10090000D01*
X18480000Y-10090000D02*
X18527500Y-10042500D01*
X18480000Y-9995000D01*
X18432500Y-10042500D01*
X18480000Y-10090000D01*
X18730000Y-10090000D02*
X18777500Y-10042500D01*
X18730000Y-9995000D01*
X18682500Y-10042500D01*
X18730000Y-10090000D01*
X19220000Y-14367500D02*
X19267500Y-14320000D01*
X19220000Y-14272500D01*
X19172500Y-14320000D01*
X19220000Y-14367500D01*
X19220000Y-14617500D02*
X19267500Y-14570000D01*
X19220000Y-14522500D01*
X19172500Y-14570000D01*
X19220000Y-14617500D01*
X19220000Y-14867500D02*
X19267500Y-14820000D01*
X19220000Y-14772500D01*
X19172500Y-14820000D01*
X19220000Y-14867500D01*
X20077500Y-12617500D02*
X20125000Y-12570000D01*
X20077500Y-12522500D01*
X20030000Y-12570000D01*
X20077500Y-12617500D01*
X20077500Y-12867500D02*
X20125000Y-12820000D01*
X20077500Y-12772500D01*
X20030000Y-12820000D01*
X20077500Y-12867500D01*
X20077500Y-13117500D02*
X20125000Y-13070000D01*
X20077500Y-13022500D01*
X20030000Y-13070000D01*
X20077500Y-13117500D01*
X20077500Y-13367500D02*
X20125000Y-13320000D01*
X20077500Y-13272500D01*
X20030000Y-13320000D01*
X20077500Y-13367500D01*
D10*
X9917500Y-10935000D02*
X10017500Y-11035000D01*
X10017500Y-10935000D02*
X9917500Y-11035000D01*
X10017500Y-10985000D02*
G75*
G03*
X10017500Y-10985000I-50000J0D01*
G01*
X9917500Y-11185000D02*
X10017500Y-11285000D01*
X10017500Y-11185000D02*
X9917500Y-11285000D01*
X10017500Y-11235000D02*
G75*
G03*
X10017500Y-11235000I-50000J0D01*
G01*
X20130000Y-11434500D02*
X20230000Y-11534500D01*
X20230000Y-11434500D02*
X20130000Y-11534500D01*
X20230000Y-11484500D02*
G75*
G03*
X20230000Y-11484500I-50000J0D01*
G01*
X20130000Y-11688500D02*
X20230000Y-11788500D01*
X20230000Y-11688500D02*
X20130000Y-11788500D01*
X20230000Y-11738500D02*
G75*
G03*
X20230000Y-11738500I-50000J0D01*
G01*
X20130000Y-11942500D02*
X20230000Y-12042500D01*
X20230000Y-11942500D02*
X20130000Y-12042500D01*
X20230000Y-11992500D02*
G75*
G03*
X20230000Y-11992500I-50000J0D01*
G01*
D17*
X9837500Y-12037500D02*
X10022500Y-12222500D01*
X10022500Y-12037500D02*
X9837500Y-12222500D01*
X9930000Y-12037500D02*
X9930000Y-12222500D01*
X9837500Y-12130000D02*
X10022500Y-12130000D01*
X9837500Y-12507500D02*
X10022500Y-12692500D01*
X10022500Y-12507500D02*
X9837500Y-12692500D01*
X9930000Y-12507500D02*
X9930000Y-12692500D01*
X9837500Y-12600000D02*
X10022500Y-12600000D01*
X9837500Y-12977500D02*
X10022500Y-13162500D01*
X10022500Y-12977500D02*
X9837500Y-13162500D01*
X9930000Y-12977500D02*
X9930000Y-13162500D01*
X9837500Y-13070000D02*
X10022500Y-13070000D01*
D18*
X9840000Y-9840000D02*
X10160000Y-10160000D01*
X10160000Y-9840000D02*
X9840000Y-10160000D01*
X10113138Y-10113138D02*
X10113138Y-9886862D01*
X9886862Y-9886862D01*
X9886862Y-10113138D01*
X10113138Y-10113138D01*
X9840000Y-13840000D02*
X10160000Y-14160000D01*
X10160000Y-13840000D02*
X9840000Y-14160000D01*
X10113138Y-14113138D02*
X10113138Y-13886862D01*
X9886862Y-13886862D01*
X9886862Y-14113138D01*
X10113138Y-14113138D01*
X19840000Y-9840000D02*
X20160000Y-10160000D01*
X20160000Y-9840000D02*
X19840000Y-10160000D01*
X20113138Y-10113138D02*
X20113138Y-9886862D01*
X19886862Y-9886862D01*
X19886862Y-10113138D01*
X20113138Y-10113138D01*
X19840000Y-13840000D02*
X20160000Y-14160000D01*
X20160000Y-13840000D02*
X19840000Y-14160000D01*
X20113138Y-14113138D02*
X20113138Y-13886862D01*
X19886862Y-13886862D01*
X19886862Y-14113138D01*
X20113138Y-14113138D01*
D11*
X9752619Y-15515476D02*
X9752619Y-15315476D01*
X9800238Y-15315476D01*
X9828810Y-15325000D01*
X9847857Y-15344048D01*
X9857381Y-15363095D01*
X9866905Y-15401190D01*
X9866905Y-15429762D01*
X9857381Y-15467857D01*
X9847857Y-15486905D01*
X9828810Y-15505952D01*
X9800238Y-15515476D01*
X9752619Y-15515476D01*
X9952619Y-15515476D02*
X9952619Y-15382143D01*
X9952619Y-15420238D02*
X9962143Y-15401190D01*
X9971667Y-15391667D01*
X9990714Y-15382143D01*
X10009762Y-15382143D01*
X10076429Y-15515476D02*
X10076429Y-15382143D01*
X10076429Y-15315476D02*
X10066905Y-15325000D01*
X10076429Y-15334524D01*
X10085952Y-15325000D01*
X10076429Y-15315476D01*
X10076429Y-15334524D01*
X10200238Y-15515476D02*
X10181190Y-15505952D01*
X10171667Y-15486905D01*
X10171667Y-15315476D01*
X10305000Y-15515476D02*
X10285952Y-15505952D01*
X10276429Y-15486905D01*
X10276429Y-15315476D01*
X10533571Y-15515476D02*
X10533571Y-15315476D01*
X10600238Y-15458333D01*
X10666905Y-15315476D01*
X10666905Y-15515476D01*
X10847857Y-15515476D02*
X10847857Y-15410714D01*
X10838333Y-15391667D01*
X10819286Y-15382143D01*
X10781190Y-15382143D01*
X10762143Y-15391667D01*
X10847857Y-15505952D02*
X10828810Y-15515476D01*
X10781190Y-15515476D01*
X10762143Y-15505952D01*
X10752619Y-15486905D01*
X10752619Y-15467857D01*
X10762143Y-15448809D01*
X10781190Y-15439286D01*
X10828810Y-15439286D01*
X10847857Y-15429762D01*
X10943095Y-15382143D02*
X10943095Y-15582143D01*
X10943095Y-15391667D02*
X10962143Y-15382143D01*
X11000238Y-15382143D01*
X11019286Y-15391667D01*
X11028810Y-15401190D01*
X11038333Y-15420238D01*
X11038333Y-15477381D01*
X11028810Y-15496428D01*
X11019286Y-15505952D01*
X11000238Y-15515476D01*
X10962143Y-15515476D01*
X10943095Y-15505952D01*
X11124048Y-15496428D02*
X11133571Y-15505952D01*
X11124048Y-15515476D01*
X11114524Y-15505952D01*
X11124048Y-15496428D01*
X11124048Y-15515476D01*
X11124048Y-15391667D02*
X11133571Y-15401190D01*
X11124048Y-15410714D01*
X11114524Y-15401190D01*
X11124048Y-15391667D01*
X11124048Y-15410714D01*
D12*
X9465000Y-15830000D02*
X9495000Y-15860000D01*
X9495000Y-15830000D02*
X9465000Y-15860000D01*
D11*
X9790714Y-15735476D02*
X9809762Y-15735476D01*
X9828810Y-15745000D01*
X9838333Y-15754524D01*
X9847857Y-15773571D01*
X9857381Y-15811667D01*
X9857381Y-15859286D01*
X9847857Y-15897381D01*
X9838333Y-15916428D01*
X9828810Y-15925952D01*
X9809762Y-15935476D01*
X9790714Y-15935476D01*
X9771667Y-15925952D01*
X9762143Y-15916428D01*
X9752619Y-15897381D01*
X9743095Y-15859286D01*
X9743095Y-15811667D01*
X9752619Y-15773571D01*
X9762143Y-15754524D01*
X9771667Y-15745000D01*
X9790714Y-15735476D01*
X9943095Y-15916428D02*
X9952619Y-15925952D01*
X9943095Y-15935476D01*
X9933571Y-15925952D01*
X9943095Y-15916428D01*
X9943095Y-15935476D01*
X10019286Y-15735476D02*
X10143095Y-15735476D01*
X10076429Y-15811667D01*
X10105000Y-15811667D01*
X10124048Y-15821190D01*
X10133571Y-15830714D01*
X10143095Y-15849762D01*
X10143095Y-15897381D01*
X10133571Y-15916428D01*
X10124048Y-15925952D01*
X10105000Y-15935476D01*
X10047857Y-15935476D01*
X10028810Y-15925952D01*
X10019286Y-15916428D01*
X10266905Y-15735476D02*
X10285952Y-15735476D01*
X10305000Y-15745000D01*
X10314524Y-15754524D01*
X10324048Y-15773571D01*
X10333571Y-15811667D01*
X10333571Y-15859286D01*
X10324048Y-15897381D01*
X10314524Y-15916428D01*
X10305000Y-15925952D01*
X10285952Y-15935476D01*
X10266905Y-15935476D01*
X10247857Y-15925952D01*
X10238333Y-15916428D01*
X10228810Y-15897381D01*
X10219286Y-15859286D01*
X10219286Y-15811667D01*
X10228810Y-15773571D01*
X10238333Y-15754524D01*
X10247857Y-15745000D01*
X10266905Y-15735476D01*
X10457381Y-15735476D02*
X10476429Y-15735476D01*
X10495476Y-15745000D01*
X10505000Y-15754524D01*
X10514524Y-15773571D01*
X10524048Y-15811667D01*
X10524048Y-15859286D01*
X10514524Y-15897381D01*
X10505000Y-15916428D01*
X10495476Y-15925952D01*
X10476429Y-15935476D01*
X10457381Y-15935476D01*
X10438333Y-15925952D01*
X10428810Y-15916428D01*
X10419286Y-15897381D01*
X10409762Y-15859286D01*
X10409762Y-15811667D01*
X10419286Y-15773571D01*
X10428810Y-15754524D01*
X10438333Y-15745000D01*
X10457381Y-15735476D01*
X10609762Y-15935476D02*
X10609762Y-15802143D01*
X10609762Y-15821190D02*
X10619286Y-15811667D01*
X10638333Y-15802143D01*
X10666905Y-15802143D01*
X10685952Y-15811667D01*
X10695476Y-15830714D01*
X10695476Y-15935476D01*
X10695476Y-15830714D02*
X10705000Y-15811667D01*
X10724048Y-15802143D01*
X10752619Y-15802143D01*
X10771667Y-15811667D01*
X10781190Y-15830714D01*
X10781190Y-15935476D01*
X10876429Y-15935476D02*
X10876429Y-15802143D01*
X10876429Y-15821190D02*
X10885952Y-15811667D01*
X10905000Y-15802143D01*
X10933571Y-15802143D01*
X10952619Y-15811667D01*
X10962143Y-15830714D01*
X10962143Y-15935476D01*
X10962143Y-15830714D02*
X10971667Y-15811667D01*
X10990714Y-15802143D01*
X11019286Y-15802143D01*
X11038333Y-15811667D01*
X11047857Y-15830714D01*
X11047857Y-15935476D01*
X11438333Y-15725952D02*
X11266905Y-15983095D01*
X11695476Y-15735476D02*
X11714524Y-15735476D01*
X11733571Y-15745000D01*
X11743095Y-15754524D01*
X11752619Y-15773571D01*
X11762143Y-15811667D01*
X11762143Y-15859286D01*
X11752619Y-15897381D01*
X11743095Y-15916428D01*
X11733571Y-15925952D01*
X11714524Y-15935476D01*
X11695476Y-15935476D01*
X11676428Y-15925952D01*
X11666905Y-15916428D01*
X11657381Y-15897381D01*
X11647857Y-15859286D01*
X11647857Y-15811667D01*
X11657381Y-15773571D01*
X11666905Y-15754524D01*
X11676428Y-15745000D01*
X11695476Y-15735476D01*
X11847857Y-15916428D02*
X11857381Y-15925952D01*
X11847857Y-15935476D01*
X11838333Y-15925952D01*
X11847857Y-15916428D01*
X11847857Y-15935476D01*
X11981190Y-15735476D02*
X12000238Y-15735476D01*
X12019286Y-15745000D01*
X12028809Y-15754524D01*
X12038333Y-15773571D01*
X12047857Y-15811667D01*
X12047857Y-15859286D01*
X12038333Y-15897381D01*
X12028809Y-15916428D01*
X12019286Y-15925952D01*
X12000238Y-15935476D01*
X11981190Y-15935476D01*
X11962143Y-15925952D01*
X11952619Y-15916428D01*
X11943095Y-15897381D01*
X11933571Y-15859286D01*
X11933571Y-15811667D01*
X11943095Y-15773571D01*
X11952619Y-15754524D01*
X11962143Y-15745000D01*
X11981190Y-15735476D01*
X12238333Y-15935476D02*
X12124048Y-15935476D01*
X12181190Y-15935476D02*
X12181190Y-15735476D01*
X12162143Y-15764048D01*
X12143095Y-15783095D01*
X12124048Y-15792619D01*
X12428809Y-15935476D02*
X12314524Y-15935476D01*
X12371667Y-15935476D02*
X12371667Y-15735476D01*
X12352619Y-15764048D01*
X12333571Y-15783095D01*
X12314524Y-15792619D01*
X12543095Y-15821190D02*
X12524048Y-15811667D01*
X12514524Y-15802143D01*
X12505000Y-15783095D01*
X12505000Y-15773571D01*
X12514524Y-15754524D01*
X12524048Y-15745000D01*
X12543095Y-15735476D01*
X12581190Y-15735476D01*
X12600238Y-15745000D01*
X12609762Y-15754524D01*
X12619286Y-15773571D01*
X12619286Y-15783095D01*
X12609762Y-15802143D01*
X12600238Y-15811667D01*
X12581190Y-15821190D01*
X12543095Y-15821190D01*
X12524048Y-15830714D01*
X12514524Y-15840238D01*
X12505000Y-15859286D01*
X12505000Y-15897381D01*
X12514524Y-15916428D01*
X12524048Y-15925952D01*
X12543095Y-15935476D01*
X12581190Y-15935476D01*
X12600238Y-15925952D01*
X12609762Y-15916428D01*
X12619286Y-15897381D01*
X12619286Y-15859286D01*
X12609762Y-15840238D01*
X12600238Y-15830714D01*
X12581190Y-15821190D01*
X12695476Y-15735476D02*
X12695476Y-15773571D01*
X12771667Y-15735476D02*
X12771667Y-15773571D01*
X13066905Y-16011667D02*
X13057381Y-16002143D01*
X13038333Y-15973571D01*
X13028809Y-15954524D01*
X13019286Y-15925952D01*
X13009762Y-15878333D01*
X13009762Y-15840238D01*
X13019286Y-15792619D01*
X13028809Y-15764048D01*
X13038333Y-15745000D01*
X13057381Y-15716428D01*
X13066905Y-15706905D01*
X13124048Y-15735476D02*
X13247857Y-15735476D01*
X13181190Y-15811667D01*
X13209762Y-15811667D01*
X13228809Y-15821190D01*
X13238333Y-15830714D01*
X13247857Y-15849762D01*
X13247857Y-15897381D01*
X13238333Y-15916428D01*
X13228809Y-15925952D01*
X13209762Y-15935476D01*
X13152619Y-15935476D01*
X13133571Y-15925952D01*
X13124048Y-15916428D01*
X13438333Y-15935476D02*
X13324048Y-15935476D01*
X13381190Y-15935476D02*
X13381190Y-15735476D01*
X13362143Y-15764048D01*
X13343095Y-15783095D01*
X13324048Y-15792619D01*
X13676428Y-15935476D02*
X13676428Y-15735476D01*
X13762143Y-15935476D02*
X13762143Y-15830714D01*
X13752619Y-15811667D01*
X13733571Y-15802143D01*
X13705000Y-15802143D01*
X13685952Y-15811667D01*
X13676428Y-15821190D01*
X13885952Y-15935476D02*
X13866905Y-15925952D01*
X13857381Y-15916428D01*
X13847857Y-15897381D01*
X13847857Y-15840238D01*
X13857381Y-15821190D01*
X13866905Y-15811667D01*
X13885952Y-15802143D01*
X13914524Y-15802143D01*
X13933571Y-15811667D01*
X13943095Y-15821190D01*
X13952619Y-15840238D01*
X13952619Y-15897381D01*
X13943095Y-15916428D01*
X13933571Y-15925952D01*
X13914524Y-15935476D01*
X13885952Y-15935476D01*
X14066905Y-15935476D02*
X14047857Y-15925952D01*
X14038333Y-15906905D01*
X14038333Y-15735476D01*
X14219286Y-15925952D02*
X14200238Y-15935476D01*
X14162143Y-15935476D01*
X14143095Y-15925952D01*
X14133571Y-15906905D01*
X14133571Y-15830714D01*
X14143095Y-15811667D01*
X14162143Y-15802143D01*
X14200238Y-15802143D01*
X14219286Y-15811667D01*
X14228809Y-15830714D01*
X14228809Y-15849762D01*
X14133571Y-15868809D01*
X14305000Y-15925952D02*
X14324048Y-15935476D01*
X14362143Y-15935476D01*
X14381190Y-15925952D01*
X14390714Y-15906905D01*
X14390714Y-15897381D01*
X14381190Y-15878333D01*
X14362143Y-15868809D01*
X14333571Y-15868809D01*
X14314524Y-15859286D01*
X14305000Y-15840238D01*
X14305000Y-15830714D01*
X14314524Y-15811667D01*
X14333571Y-15802143D01*
X14362143Y-15802143D01*
X14381190Y-15811667D01*
X14457381Y-16011667D02*
X14466905Y-16002143D01*
X14485952Y-15973571D01*
X14495476Y-15954524D01*
X14505000Y-15925952D01*
X14514524Y-15878333D01*
X14514524Y-15840238D01*
X14505000Y-15792619D01*
X14495476Y-15764048D01*
X14485952Y-15745000D01*
X14466905Y-15716428D01*
X14457381Y-15706905D01*
D13*
X9495000Y-16109000D02*
G75*
G03*
X9495000Y-16109000I-20000J0D01*
G01*
D11*
X9790714Y-15999476D02*
X9809762Y-15999476D01*
X9828810Y-16009000D01*
X9838333Y-16018524D01*
X9847857Y-16037571D01*
X9857381Y-16075667D01*
X9857381Y-16123286D01*
X9847857Y-16161381D01*
X9838333Y-16180428D01*
X9828810Y-16189952D01*
X9809762Y-16199476D01*
X9790714Y-16199476D01*
X9771667Y-16189952D01*
X9762143Y-16180428D01*
X9752619Y-16161381D01*
X9743095Y-16123286D01*
X9743095Y-16075667D01*
X9752619Y-16037571D01*
X9762143Y-16018524D01*
X9771667Y-16009000D01*
X9790714Y-15999476D01*
X9943095Y-16180428D02*
X9952619Y-16189952D01*
X9943095Y-16199476D01*
X9933571Y-16189952D01*
X9943095Y-16180428D01*
X9943095Y-16199476D01*
X10124048Y-16066143D02*
X10124048Y-16199476D01*
X10076429Y-15989952D02*
X10028810Y-16132809D01*
X10152619Y-16132809D01*
X10266905Y-15999476D02*
X10285952Y-15999476D01*
X10305000Y-16009000D01*
X10314524Y-16018524D01*
X10324048Y-16037571D01*
X10333571Y-16075667D01*
X10333571Y-16123286D01*
X10324048Y-16161381D01*
X10314524Y-16180428D01*
X10305000Y-16189952D01*
X10285952Y-16199476D01*
X10266905Y-16199476D01*
X10247857Y-16189952D01*
X10238333Y-16180428D01*
X10228810Y-16161381D01*
X10219286Y-16123286D01*
X10219286Y-16075667D01*
X10228810Y-16037571D01*
X10238333Y-16018524D01*
X10247857Y-16009000D01*
X10266905Y-15999476D01*
X10457381Y-15999476D02*
X10476429Y-15999476D01*
X10495476Y-16009000D01*
X10505000Y-16018524D01*
X10514524Y-16037571D01*
X10524048Y-16075667D01*
X10524048Y-16123286D01*
X10514524Y-16161381D01*
X10505000Y-16180428D01*
X10495476Y-16189952D01*
X10476429Y-16199476D01*
X10457381Y-16199476D01*
X10438333Y-16189952D01*
X10428810Y-16180428D01*
X10419286Y-16161381D01*
X10409762Y-16123286D01*
X10409762Y-16075667D01*
X10419286Y-16037571D01*
X10428810Y-16018524D01*
X10438333Y-16009000D01*
X10457381Y-15999476D01*
X10609762Y-16199476D02*
X10609762Y-16066143D01*
X10609762Y-16085190D02*
X10619286Y-16075667D01*
X10638333Y-16066143D01*
X10666905Y-16066143D01*
X10685952Y-16075667D01*
X10695476Y-16094714D01*
X10695476Y-16199476D01*
X10695476Y-16094714D02*
X10705000Y-16075667D01*
X10724048Y-16066143D01*
X10752619Y-16066143D01*
X10771667Y-16075667D01*
X10781190Y-16094714D01*
X10781190Y-16199476D01*
X10876429Y-16199476D02*
X10876429Y-16066143D01*
X10876429Y-16085190D02*
X10885952Y-16075667D01*
X10905000Y-16066143D01*
X10933571Y-16066143D01*
X10952619Y-16075667D01*
X10962143Y-16094714D01*
X10962143Y-16199476D01*
X10962143Y-16094714D02*
X10971667Y-16075667D01*
X10990714Y-16066143D01*
X11019286Y-16066143D01*
X11038333Y-16075667D01*
X11047857Y-16094714D01*
X11047857Y-16199476D01*
X11438333Y-15989952D02*
X11266905Y-16247095D01*
X11695476Y-15999476D02*
X11714524Y-15999476D01*
X11733571Y-16009000D01*
X11743095Y-16018524D01*
X11752619Y-16037571D01*
X11762143Y-16075667D01*
X11762143Y-16123286D01*
X11752619Y-16161381D01*
X11743095Y-16180428D01*
X11733571Y-16189952D01*
X11714524Y-16199476D01*
X11695476Y-16199476D01*
X11676428Y-16189952D01*
X11666905Y-16180428D01*
X11657381Y-16161381D01*
X11647857Y-16123286D01*
X11647857Y-16075667D01*
X11657381Y-16037571D01*
X11666905Y-16018524D01*
X11676428Y-16009000D01*
X11695476Y-15999476D01*
X11847857Y-16180428D02*
X11857381Y-16189952D01*
X11847857Y-16199476D01*
X11838333Y-16189952D01*
X11847857Y-16180428D01*
X11847857Y-16199476D01*
X11981190Y-15999476D02*
X12000238Y-15999476D01*
X12019286Y-16009000D01*
X12028809Y-16018524D01*
X12038333Y-16037571D01*
X12047857Y-16075667D01*
X12047857Y-16123286D01*
X12038333Y-16161381D01*
X12028809Y-16180428D01*
X12019286Y-16189952D01*
X12000238Y-16199476D01*
X11981190Y-16199476D01*
X11962143Y-16189952D01*
X11952619Y-16180428D01*
X11943095Y-16161381D01*
X11933571Y-16123286D01*
X11933571Y-16075667D01*
X11943095Y-16037571D01*
X11952619Y-16018524D01*
X11962143Y-16009000D01*
X11981190Y-15999476D01*
X12238333Y-16199476D02*
X12124048Y-16199476D01*
X12181190Y-16199476D02*
X12181190Y-15999476D01*
X12162143Y-16028048D01*
X12143095Y-16047095D01*
X12124048Y-16056619D01*
X12419286Y-15999476D02*
X12324048Y-15999476D01*
X12314524Y-16094714D01*
X12324048Y-16085190D01*
X12343095Y-16075667D01*
X12390714Y-16075667D01*
X12409762Y-16085190D01*
X12419286Y-16094714D01*
X12428809Y-16113762D01*
X12428809Y-16161381D01*
X12419286Y-16180428D01*
X12409762Y-16189952D01*
X12390714Y-16199476D01*
X12343095Y-16199476D01*
X12324048Y-16189952D01*
X12314524Y-16180428D01*
X12495476Y-15999476D02*
X12628809Y-15999476D01*
X12543095Y-16199476D01*
X12695476Y-15999476D02*
X12695476Y-16037571D01*
X12771667Y-15999476D02*
X12771667Y-16037571D01*
X13066905Y-16275667D02*
X13057381Y-16266143D01*
X13038333Y-16237571D01*
X13028809Y-16218524D01*
X13019286Y-16189952D01*
X13009762Y-16142333D01*
X13009762Y-16104238D01*
X13019286Y-16056619D01*
X13028809Y-16028048D01*
X13038333Y-16009000D01*
X13057381Y-15980428D01*
X13066905Y-15970905D01*
X13124048Y-15999476D02*
X13247857Y-15999476D01*
X13181190Y-16075667D01*
X13209762Y-16075667D01*
X13228809Y-16085190D01*
X13238333Y-16094714D01*
X13247857Y-16113762D01*
X13247857Y-16161381D01*
X13238333Y-16180428D01*
X13228809Y-16189952D01*
X13209762Y-16199476D01*
X13152619Y-16199476D01*
X13133571Y-16189952D01*
X13124048Y-16180428D01*
X13419286Y-16066143D02*
X13419286Y-16199476D01*
X13371667Y-15989952D02*
X13324048Y-16132809D01*
X13447857Y-16132809D01*
X13676428Y-16199476D02*
X13676428Y-15999476D01*
X13762143Y-16199476D02*
X13762143Y-16094714D01*
X13752619Y-16075667D01*
X13733571Y-16066143D01*
X13705000Y-16066143D01*
X13685952Y-16075667D01*
X13676428Y-16085190D01*
X13885952Y-16199476D02*
X13866905Y-16189952D01*
X13857381Y-16180428D01*
X13847857Y-16161381D01*
X13847857Y-16104238D01*
X13857381Y-16085190D01*
X13866905Y-16075667D01*
X13885952Y-16066143D01*
X13914524Y-16066143D01*
X13933571Y-16075667D01*
X13943095Y-16085190D01*
X13952619Y-16104238D01*
X13952619Y-16161381D01*
X13943095Y-16180428D01*
X13933571Y-16189952D01*
X13914524Y-16199476D01*
X13885952Y-16199476D01*
X14066905Y-16199476D02*
X14047857Y-16189952D01*
X14038333Y-16170905D01*
X14038333Y-15999476D01*
X14219286Y-16189952D02*
X14200238Y-16199476D01*
X14162143Y-16199476D01*
X14143095Y-16189952D01*
X14133571Y-16170905D01*
X14133571Y-16094714D01*
X14143095Y-16075667D01*
X14162143Y-16066143D01*
X14200238Y-16066143D01*
X14219286Y-16075667D01*
X14228809Y-16094714D01*
X14228809Y-16113762D01*
X14133571Y-16132809D01*
X14305000Y-16189952D02*
X14324048Y-16199476D01*
X14362143Y-16199476D01*
X14381190Y-16189952D01*
X14390714Y-16170905D01*
X14390714Y-16161381D01*
X14381190Y-16142333D01*
X14362143Y-16132809D01*
X14333571Y-16132809D01*
X14314524Y-16123286D01*
X14305000Y-16104238D01*
X14305000Y-16094714D01*
X14314524Y-16075667D01*
X14333571Y-16066143D01*
X14362143Y-16066143D01*
X14381190Y-16075667D01*
X14457381Y-16275667D02*
X14466905Y-16266143D01*
X14485952Y-16237571D01*
X14495476Y-16218524D01*
X14505000Y-16189952D01*
X14514524Y-16142333D01*
X14514524Y-16104238D01*
X14505000Y-16056619D01*
X14495476Y-16028048D01*
X14485952Y-16009000D01*
X14466905Y-15980428D01*
X14457381Y-15970905D01*
D14*
X9470000Y-16348000D02*
X9470000Y-16398000D01*
X9445000Y-16373000D02*
X9495000Y-16373000D01*
D11*
X9790714Y-16263476D02*
X9809762Y-16263476D01*
X9828810Y-16273000D01*
X9838333Y-16282524D01*
X9847857Y-16301571D01*
X9857381Y-16339667D01*
X9857381Y-16387286D01*
X9847857Y-16425381D01*
X9838333Y-16444428D01*
X9828810Y-16453952D01*
X9809762Y-16463476D01*
X9790714Y-16463476D01*
X9771667Y-16453952D01*
X9762143Y-16444428D01*
X9752619Y-16425381D01*
X9743095Y-16387286D01*
X9743095Y-16339667D01*
X9752619Y-16301571D01*
X9762143Y-16282524D01*
X9771667Y-16273000D01*
X9790714Y-16263476D01*
X9943095Y-16444428D02*
X9952619Y-16453952D01*
X9943095Y-16463476D01*
X9933571Y-16453952D01*
X9943095Y-16444428D01*
X9943095Y-16463476D01*
X10133571Y-16263476D02*
X10038333Y-16263476D01*
X10028810Y-16358714D01*
X10038333Y-16349190D01*
X10057381Y-16339667D01*
X10105000Y-16339667D01*
X10124048Y-16349190D01*
X10133571Y-16358714D01*
X10143095Y-16377762D01*
X10143095Y-16425381D01*
X10133571Y-16444428D01*
X10124048Y-16453952D01*
X10105000Y-16463476D01*
X10057381Y-16463476D01*
X10038333Y-16453952D01*
X10028810Y-16444428D01*
X10266905Y-16263476D02*
X10285952Y-16263476D01*
X10305000Y-16273000D01*
X10314524Y-16282524D01*
X10324048Y-16301571D01*
X10333571Y-16339667D01*
X10333571Y-16387286D01*
X10324048Y-16425381D01*
X10314524Y-16444428D01*
X10305000Y-16453952D01*
X10285952Y-16463476D01*
X10266905Y-16463476D01*
X10247857Y-16453952D01*
X10238333Y-16444428D01*
X10228810Y-16425381D01*
X10219286Y-16387286D01*
X10219286Y-16339667D01*
X10228810Y-16301571D01*
X10238333Y-16282524D01*
X10247857Y-16273000D01*
X10266905Y-16263476D01*
X10457381Y-16263476D02*
X10476429Y-16263476D01*
X10495476Y-16273000D01*
X10505000Y-16282524D01*
X10514524Y-16301571D01*
X10524048Y-16339667D01*
X10524048Y-16387286D01*
X10514524Y-16425381D01*
X10505000Y-16444428D01*
X10495476Y-16453952D01*
X10476429Y-16463476D01*
X10457381Y-16463476D01*
X10438333Y-16453952D01*
X10428810Y-16444428D01*
X10419286Y-16425381D01*
X10409762Y-16387286D01*
X10409762Y-16339667D01*
X10419286Y-16301571D01*
X10428810Y-16282524D01*
X10438333Y-16273000D01*
X10457381Y-16263476D01*
X10609762Y-16463476D02*
X10609762Y-16330143D01*
X10609762Y-16349190D02*
X10619286Y-16339667D01*
X10638333Y-16330143D01*
X10666905Y-16330143D01*
X10685952Y-16339667D01*
X10695476Y-16358714D01*
X10695476Y-16463476D01*
X10695476Y-16358714D02*
X10705000Y-16339667D01*
X10724048Y-16330143D01*
X10752619Y-16330143D01*
X10771667Y-16339667D01*
X10781190Y-16358714D01*
X10781190Y-16463476D01*
X10876429Y-16463476D02*
X10876429Y-16330143D01*
X10876429Y-16349190D02*
X10885952Y-16339667D01*
X10905000Y-16330143D01*
X10933571Y-16330143D01*
X10952619Y-16339667D01*
X10962143Y-16358714D01*
X10962143Y-16463476D01*
X10962143Y-16358714D02*
X10971667Y-16339667D01*
X10990714Y-16330143D01*
X11019286Y-16330143D01*
X11038333Y-16339667D01*
X11047857Y-16358714D01*
X11047857Y-16463476D01*
X11438333Y-16253952D02*
X11266905Y-16511095D01*
X11695476Y-16263476D02*
X11714524Y-16263476D01*
X11733571Y-16273000D01*
X11743095Y-16282524D01*
X11752619Y-16301571D01*
X11762143Y-16339667D01*
X11762143Y-16387286D01*
X11752619Y-16425381D01*
X11743095Y-16444428D01*
X11733571Y-16453952D01*
X11714524Y-16463476D01*
X11695476Y-16463476D01*
X11676428Y-16453952D01*
X11666905Y-16444428D01*
X11657381Y-16425381D01*
X11647857Y-16387286D01*
X11647857Y-16339667D01*
X11657381Y-16301571D01*
X11666905Y-16282524D01*
X11676428Y-16273000D01*
X11695476Y-16263476D01*
X11847857Y-16444428D02*
X11857381Y-16453952D01*
X11847857Y-16463476D01*
X11838333Y-16453952D01*
X11847857Y-16444428D01*
X11847857Y-16463476D01*
X11981190Y-16263476D02*
X12000238Y-16263476D01*
X12019286Y-16273000D01*
X12028809Y-16282524D01*
X12038333Y-16301571D01*
X12047857Y-16339667D01*
X12047857Y-16387286D01*
X12038333Y-16425381D01*
X12028809Y-16444428D01*
X12019286Y-16453952D01*
X12000238Y-16463476D01*
X11981190Y-16463476D01*
X11962143Y-16453952D01*
X11952619Y-16444428D01*
X11943095Y-16425381D01*
X11933571Y-16387286D01*
X11933571Y-16339667D01*
X11943095Y-16301571D01*
X11952619Y-16282524D01*
X11962143Y-16273000D01*
X11981190Y-16263476D01*
X12238333Y-16463476D02*
X12124048Y-16463476D01*
X12181190Y-16463476D02*
X12181190Y-16263476D01*
X12162143Y-16292048D01*
X12143095Y-16311095D01*
X12124048Y-16320619D01*
X12333571Y-16463476D02*
X12371667Y-16463476D01*
X12390714Y-16453952D01*
X12400238Y-16444428D01*
X12419286Y-16415857D01*
X12428809Y-16377762D01*
X12428809Y-16301571D01*
X12419286Y-16282524D01*
X12409762Y-16273000D01*
X12390714Y-16263476D01*
X12352619Y-16263476D01*
X12333571Y-16273000D01*
X12324048Y-16282524D01*
X12314524Y-16301571D01*
X12314524Y-16349190D01*
X12324048Y-16368238D01*
X12333571Y-16377762D01*
X12352619Y-16387286D01*
X12390714Y-16387286D01*
X12409762Y-16377762D01*
X12419286Y-16368238D01*
X12428809Y-16349190D01*
X12495476Y-16263476D02*
X12628809Y-16263476D01*
X12543095Y-16463476D01*
X12695476Y-16263476D02*
X12695476Y-16301571D01*
X12771667Y-16263476D02*
X12771667Y-16301571D01*
X13066905Y-16539667D02*
X13057381Y-16530143D01*
X13038333Y-16501571D01*
X13028809Y-16482524D01*
X13019286Y-16453952D01*
X13009762Y-16406333D01*
X13009762Y-16368238D01*
X13019286Y-16320619D01*
X13028809Y-16292048D01*
X13038333Y-16273000D01*
X13057381Y-16244428D01*
X13066905Y-16234905D01*
X13124048Y-16263476D02*
X13247857Y-16263476D01*
X13181190Y-16339667D01*
X13209762Y-16339667D01*
X13228809Y-16349190D01*
X13238333Y-16358714D01*
X13247857Y-16377762D01*
X13247857Y-16425381D01*
X13238333Y-16444428D01*
X13228809Y-16453952D01*
X13209762Y-16463476D01*
X13152619Y-16463476D01*
X13133571Y-16453952D01*
X13124048Y-16444428D01*
X13324048Y-16282524D02*
X13333571Y-16273000D01*
X13352619Y-16263476D01*
X13400238Y-16263476D01*
X13419286Y-16273000D01*
X13428809Y-16282524D01*
X13438333Y-16301571D01*
X13438333Y-16320619D01*
X13428809Y-16349190D01*
X13314524Y-16463476D01*
X13438333Y-16463476D01*
X13676428Y-16463476D02*
X13676428Y-16263476D01*
X13762143Y-16463476D02*
X13762143Y-16358714D01*
X13752619Y-16339667D01*
X13733571Y-16330143D01*
X13705000Y-16330143D01*
X13685952Y-16339667D01*
X13676428Y-16349190D01*
X13885952Y-16463476D02*
X13866905Y-16453952D01*
X13857381Y-16444428D01*
X13847857Y-16425381D01*
X13847857Y-16368238D01*
X13857381Y-16349190D01*
X13866905Y-16339667D01*
X13885952Y-16330143D01*
X13914524Y-16330143D01*
X13933571Y-16339667D01*
X13943095Y-16349190D01*
X13952619Y-16368238D01*
X13952619Y-16425381D01*
X13943095Y-16444428D01*
X13933571Y-16453952D01*
X13914524Y-16463476D01*
X13885952Y-16463476D01*
X14066905Y-16463476D02*
X14047857Y-16453952D01*
X14038333Y-16434905D01*
X14038333Y-16263476D01*
X14219286Y-16453952D02*
X14200238Y-16463476D01*
X14162143Y-16463476D01*
X14143095Y-16453952D01*
X14133571Y-16434905D01*
X14133571Y-16358714D01*
X14143095Y-16339667D01*
X14162143Y-16330143D01*
X14200238Y-16330143D01*
X14219286Y-16339667D01*
X14228809Y-16358714D01*
X14228809Y-16377762D01*
X14133571Y-16396809D01*
X14305000Y-16453952D02*
X14324048Y-16463476D01*
X14362143Y-16463476D01*
X14381190Y-16453952D01*
X14390714Y-16434905D01*
X14390714Y-16425381D01*
X14381190Y-16406333D01*
X14362143Y-16396809D01*
X14333571Y-16396809D01*
X14314524Y-16387286D01*
X14305000Y-16368238D01*
X14305000Y-16358714D01*
X14314524Y-16339667D01*
X14333571Y-16330143D01*
X14362143Y-16330143D01*
X14381190Y-16339667D01*
X14457381Y-16539667D02*
X14466905Y-16530143D01*
X14485952Y-16501571D01*
X14495476Y-16482524D01*
X14505000Y-16453952D01*
X14514524Y-16406333D01*
X14514524Y-16368238D01*
X14505000Y-16320619D01*
X14495476Y-16292048D01*
X14485952Y-16273000D01*
X14466905Y-16244428D01*
X14457381Y-16234905D01*
D15*
X9483285Y-16665284D02*
X9483285Y-16608715D01*
X9426716Y-16608715D01*
X9426716Y-16665284D01*
X9483285Y-16665284D01*
D11*
X9790714Y-16527476D02*
X9809762Y-16527476D01*
X9828810Y-16537000D01*
X9838333Y-16546524D01*
X9847857Y-16565571D01*
X9857381Y-16603667D01*
X9857381Y-16651286D01*
X9847857Y-16689381D01*
X9838333Y-16708428D01*
X9828810Y-16717952D01*
X9809762Y-16727476D01*
X9790714Y-16727476D01*
X9771667Y-16717952D01*
X9762143Y-16708428D01*
X9752619Y-16689381D01*
X9743095Y-16651286D01*
X9743095Y-16603667D01*
X9752619Y-16565571D01*
X9762143Y-16546524D01*
X9771667Y-16537000D01*
X9790714Y-16527476D01*
X9943095Y-16708428D02*
X9952619Y-16717952D01*
X9943095Y-16727476D01*
X9933571Y-16717952D01*
X9943095Y-16708428D01*
X9943095Y-16727476D01*
X10066905Y-16613190D02*
X10047857Y-16603667D01*
X10038333Y-16594143D01*
X10028810Y-16575095D01*
X10028810Y-16565571D01*
X10038333Y-16546524D01*
X10047857Y-16537000D01*
X10066905Y-16527476D01*
X10105000Y-16527476D01*
X10124048Y-16537000D01*
X10133571Y-16546524D01*
X10143095Y-16565571D01*
X10143095Y-16575095D01*
X10133571Y-16594143D01*
X10124048Y-16603667D01*
X10105000Y-16613190D01*
X10066905Y-16613190D01*
X10047857Y-16622714D01*
X10038333Y-16632238D01*
X10028810Y-16651286D01*
X10028810Y-16689381D01*
X10038333Y-16708428D01*
X10047857Y-16717952D01*
X10066905Y-16727476D01*
X10105000Y-16727476D01*
X10124048Y-16717952D01*
X10133571Y-16708428D01*
X10143095Y-16689381D01*
X10143095Y-16651286D01*
X10133571Y-16632238D01*
X10124048Y-16622714D01*
X10105000Y-16613190D01*
X10266905Y-16527476D02*
X10285952Y-16527476D01*
X10305000Y-16537000D01*
X10314524Y-16546524D01*
X10324048Y-16565571D01*
X10333571Y-16603667D01*
X10333571Y-16651286D01*
X10324048Y-16689381D01*
X10314524Y-16708428D01*
X10305000Y-16717952D01*
X10285952Y-16727476D01*
X10266905Y-16727476D01*
X10247857Y-16717952D01*
X10238333Y-16708428D01*
X10228810Y-16689381D01*
X10219286Y-16651286D01*
X10219286Y-16603667D01*
X10228810Y-16565571D01*
X10238333Y-16546524D01*
X10247857Y-16537000D01*
X10266905Y-16527476D01*
X10457381Y-16527476D02*
X10476429Y-16527476D01*
X10495476Y-16537000D01*
X10505000Y-16546524D01*
X10514524Y-16565571D01*
X10524048Y-16603667D01*
X10524048Y-16651286D01*
X10514524Y-16689381D01*
X10505000Y-16708428D01*
X10495476Y-16717952D01*
X10476429Y-16727476D01*
X10457381Y-16727476D01*
X10438333Y-16717952D01*
X10428810Y-16708428D01*
X10419286Y-16689381D01*
X10409762Y-16651286D01*
X10409762Y-16603667D01*
X10419286Y-16565571D01*
X10428810Y-16546524D01*
X10438333Y-16537000D01*
X10457381Y-16527476D01*
X10609762Y-16727476D02*
X10609762Y-16594143D01*
X10609762Y-16613190D02*
X10619286Y-16603667D01*
X10638333Y-16594143D01*
X10666905Y-16594143D01*
X10685952Y-16603667D01*
X10695476Y-16622714D01*
X10695476Y-16727476D01*
X10695476Y-16622714D02*
X10705000Y-16603667D01*
X10724048Y-16594143D01*
X10752619Y-16594143D01*
X10771667Y-16603667D01*
X10781190Y-16622714D01*
X10781190Y-16727476D01*
X10876429Y-16727476D02*
X10876429Y-16594143D01*
X10876429Y-16613190D02*
X10885952Y-16603667D01*
X10905000Y-16594143D01*
X10933571Y-16594143D01*
X10952619Y-16603667D01*
X10962143Y-16622714D01*
X10962143Y-16727476D01*
X10962143Y-16622714D02*
X10971667Y-16603667D01*
X10990714Y-16594143D01*
X11019286Y-16594143D01*
X11038333Y-16603667D01*
X11047857Y-16622714D01*
X11047857Y-16727476D01*
X11438333Y-16517952D02*
X11266905Y-16775095D01*
X11695476Y-16527476D02*
X11714524Y-16527476D01*
X11733571Y-16537000D01*
X11743095Y-16546524D01*
X11752619Y-16565571D01*
X11762143Y-16603667D01*
X11762143Y-16651286D01*
X11752619Y-16689381D01*
X11743095Y-16708428D01*
X11733571Y-16717952D01*
X11714524Y-16727476D01*
X11695476Y-16727476D01*
X11676428Y-16717952D01*
X11666905Y-16708428D01*
X11657381Y-16689381D01*
X11647857Y-16651286D01*
X11647857Y-16603667D01*
X11657381Y-16565571D01*
X11666905Y-16546524D01*
X11676428Y-16537000D01*
X11695476Y-16527476D01*
X11847857Y-16708428D02*
X11857381Y-16717952D01*
X11847857Y-16727476D01*
X11838333Y-16717952D01*
X11847857Y-16708428D01*
X11847857Y-16727476D01*
X11981190Y-16527476D02*
X12000238Y-16527476D01*
X12019286Y-16537000D01*
X12028809Y-16546524D01*
X12038333Y-16565571D01*
X12047857Y-16603667D01*
X12047857Y-16651286D01*
X12038333Y-16689381D01*
X12028809Y-16708428D01*
X12019286Y-16717952D01*
X12000238Y-16727476D01*
X11981190Y-16727476D01*
X11962143Y-16717952D01*
X11952619Y-16708428D01*
X11943095Y-16689381D01*
X11933571Y-16651286D01*
X11933571Y-16603667D01*
X11943095Y-16565571D01*
X11952619Y-16546524D01*
X11962143Y-16537000D01*
X11981190Y-16527476D01*
X12114524Y-16527476D02*
X12238333Y-16527476D01*
X12171667Y-16603667D01*
X12200238Y-16603667D01*
X12219286Y-16613190D01*
X12228809Y-16622714D01*
X12238333Y-16641762D01*
X12238333Y-16689381D01*
X12228809Y-16708428D01*
X12219286Y-16717952D01*
X12200238Y-16727476D01*
X12143095Y-16727476D01*
X12124048Y-16717952D01*
X12114524Y-16708428D01*
X12428809Y-16727476D02*
X12314524Y-16727476D01*
X12371667Y-16727476D02*
X12371667Y-16527476D01*
X12352619Y-16556048D01*
X12333571Y-16575095D01*
X12314524Y-16584619D01*
X12609762Y-16527476D02*
X12514524Y-16527476D01*
X12505000Y-16622714D01*
X12514524Y-16613190D01*
X12533571Y-16603667D01*
X12581190Y-16603667D01*
X12600238Y-16613190D01*
X12609762Y-16622714D01*
X12619286Y-16641762D01*
X12619286Y-16689381D01*
X12609762Y-16708428D01*
X12600238Y-16717952D01*
X12581190Y-16727476D01*
X12533571Y-16727476D01*
X12514524Y-16717952D01*
X12505000Y-16708428D01*
X12695476Y-16527476D02*
X12695476Y-16565571D01*
X12771667Y-16527476D02*
X12771667Y-16565571D01*
X13066905Y-16803667D02*
X13057381Y-16794143D01*
X13038333Y-16765571D01*
X13028809Y-16746524D01*
X13019286Y-16717952D01*
X13009762Y-16670333D01*
X13009762Y-16632238D01*
X13019286Y-16584619D01*
X13028809Y-16556048D01*
X13038333Y-16537000D01*
X13057381Y-16508428D01*
X13066905Y-16498905D01*
X13133571Y-16546524D02*
X13143095Y-16537000D01*
X13162143Y-16527476D01*
X13209762Y-16527476D01*
X13228809Y-16537000D01*
X13238333Y-16546524D01*
X13247857Y-16565571D01*
X13247857Y-16584619D01*
X13238333Y-16613190D01*
X13124048Y-16727476D01*
X13247857Y-16727476D01*
X13485952Y-16727476D02*
X13485952Y-16527476D01*
X13571667Y-16727476D02*
X13571667Y-16622714D01*
X13562143Y-16603667D01*
X13543095Y-16594143D01*
X13514524Y-16594143D01*
X13495476Y-16603667D01*
X13485952Y-16613190D01*
X13695476Y-16727476D02*
X13676428Y-16717952D01*
X13666905Y-16708428D01*
X13657381Y-16689381D01*
X13657381Y-16632238D01*
X13666905Y-16613190D01*
X13676428Y-16603667D01*
X13695476Y-16594143D01*
X13724048Y-16594143D01*
X13743095Y-16603667D01*
X13752619Y-16613190D01*
X13762143Y-16632238D01*
X13762143Y-16689381D01*
X13752619Y-16708428D01*
X13743095Y-16717952D01*
X13724048Y-16727476D01*
X13695476Y-16727476D01*
X13876428Y-16727476D02*
X13857381Y-16717952D01*
X13847857Y-16698905D01*
X13847857Y-16527476D01*
X14028809Y-16717952D02*
X14009762Y-16727476D01*
X13971667Y-16727476D01*
X13952619Y-16717952D01*
X13943095Y-16698905D01*
X13943095Y-16622714D01*
X13952619Y-16603667D01*
X13971667Y-16594143D01*
X14009762Y-16594143D01*
X14028809Y-16603667D01*
X14038333Y-16622714D01*
X14038333Y-16641762D01*
X13943095Y-16660809D01*
X14114524Y-16717952D02*
X14133571Y-16727476D01*
X14171667Y-16727476D01*
X14190714Y-16717952D01*
X14200238Y-16698905D01*
X14200238Y-16689381D01*
X14190714Y-16670333D01*
X14171667Y-16660809D01*
X14143095Y-16660809D01*
X14124048Y-16651286D01*
X14114524Y-16632238D01*
X14114524Y-16622714D01*
X14124048Y-16603667D01*
X14143095Y-16594143D01*
X14171667Y-16594143D01*
X14190714Y-16603667D01*
X14266905Y-16803667D02*
X14276428Y-16794143D01*
X14295476Y-16765571D01*
X14305000Y-16746524D01*
X14314524Y-16717952D01*
X14324048Y-16670333D01*
X14324048Y-16632238D01*
X14314524Y-16584619D01*
X14305000Y-16556048D01*
X14295476Y-16537000D01*
X14276428Y-16508428D01*
X14266905Y-16498905D01*
D16*
X9447500Y-16948500D02*
X9495000Y-16901000D01*
X9447500Y-16853500D01*
X9400000Y-16901000D01*
X9447500Y-16948500D01*
D11*
X9790714Y-16791476D02*
X9809762Y-16791476D01*
X9828810Y-16801000D01*
X9838333Y-16810524D01*
X9847857Y-16829571D01*
X9857381Y-16867667D01*
X9857381Y-16915286D01*
X9847857Y-16953381D01*
X9838333Y-16972429D01*
X9828810Y-16981952D01*
X9809762Y-16991476D01*
X9790714Y-16991476D01*
X9771667Y-16981952D01*
X9762143Y-16972429D01*
X9752619Y-16953381D01*
X9743095Y-16915286D01*
X9743095Y-16867667D01*
X9752619Y-16829571D01*
X9762143Y-16810524D01*
X9771667Y-16801000D01*
X9790714Y-16791476D01*
X9943095Y-16972429D02*
X9952619Y-16981952D01*
X9943095Y-16991476D01*
X9933571Y-16981952D01*
X9943095Y-16972429D01*
X9943095Y-16991476D01*
X10047857Y-16991476D02*
X10085952Y-16991476D01*
X10105000Y-16981952D01*
X10114524Y-16972429D01*
X10133571Y-16943857D01*
X10143095Y-16905762D01*
X10143095Y-16829571D01*
X10133571Y-16810524D01*
X10124048Y-16801000D01*
X10105000Y-16791476D01*
X10066905Y-16791476D01*
X10047857Y-16801000D01*
X10038333Y-16810524D01*
X10028810Y-16829571D01*
X10028810Y-16877190D01*
X10038333Y-16896238D01*
X10047857Y-16905762D01*
X10066905Y-16915286D01*
X10105000Y-16915286D01*
X10124048Y-16905762D01*
X10133571Y-16896238D01*
X10143095Y-16877190D01*
X10324048Y-16791476D02*
X10228810Y-16791476D01*
X10219286Y-16886714D01*
X10228810Y-16877190D01*
X10247857Y-16867667D01*
X10295476Y-16867667D01*
X10314524Y-16877190D01*
X10324048Y-16886714D01*
X10333571Y-16905762D01*
X10333571Y-16953381D01*
X10324048Y-16972429D01*
X10314524Y-16981952D01*
X10295476Y-16991476D01*
X10247857Y-16991476D01*
X10228810Y-16981952D01*
X10219286Y-16972429D01*
X10457381Y-16791476D02*
X10476429Y-16791476D01*
X10495476Y-16801000D01*
X10505000Y-16810524D01*
X10514524Y-16829571D01*
X10524048Y-16867667D01*
X10524048Y-16915286D01*
X10514524Y-16953381D01*
X10505000Y-16972429D01*
X10495476Y-16981952D01*
X10476429Y-16991476D01*
X10457381Y-16991476D01*
X10438333Y-16981952D01*
X10428810Y-16972429D01*
X10419286Y-16953381D01*
X10409762Y-16915286D01*
X10409762Y-16867667D01*
X10419286Y-16829571D01*
X10428810Y-16810524D01*
X10438333Y-16801000D01*
X10457381Y-16791476D01*
X10609762Y-16991476D02*
X10609762Y-16858143D01*
X10609762Y-16877190D02*
X10619286Y-16867667D01*
X10638333Y-16858143D01*
X10666905Y-16858143D01*
X10685952Y-16867667D01*
X10695476Y-16886714D01*
X10695476Y-16991476D01*
X10695476Y-16886714D02*
X10705000Y-16867667D01*
X10724048Y-16858143D01*
X10752619Y-16858143D01*
X10771667Y-16867667D01*
X10781190Y-16886714D01*
X10781190Y-16991476D01*
X10876429Y-16991476D02*
X10876429Y-16858143D01*
X10876429Y-16877190D02*
X10885952Y-16867667D01*
X10905000Y-16858143D01*
X10933571Y-16858143D01*
X10952619Y-16867667D01*
X10962143Y-16886714D01*
X10962143Y-16991476D01*
X10962143Y-16886714D02*
X10971667Y-16867667D01*
X10990714Y-16858143D01*
X11019286Y-16858143D01*
X11038333Y-16867667D01*
X11047857Y-16886714D01*
X11047857Y-16991476D01*
X11438333Y-16781952D02*
X11266905Y-17039095D01*
X11695476Y-16791476D02*
X11714524Y-16791476D01*
X11733571Y-16801000D01*
X11743095Y-16810524D01*
X11752619Y-16829571D01*
X11762143Y-16867667D01*
X11762143Y-16915286D01*
X11752619Y-16953381D01*
X11743095Y-16972429D01*
X11733571Y-16981952D01*
X11714524Y-16991476D01*
X11695476Y-16991476D01*
X11676428Y-16981952D01*
X11666905Y-16972429D01*
X11657381Y-16953381D01*
X11647857Y-16915286D01*
X11647857Y-16867667D01*
X11657381Y-16829571D01*
X11666905Y-16810524D01*
X11676428Y-16801000D01*
X11695476Y-16791476D01*
X11847857Y-16972429D02*
X11857381Y-16981952D01*
X11847857Y-16991476D01*
X11838333Y-16981952D01*
X11847857Y-16972429D01*
X11847857Y-16991476D01*
X11981190Y-16791476D02*
X12000238Y-16791476D01*
X12019286Y-16801000D01*
X12028809Y-16810524D01*
X12038333Y-16829571D01*
X12047857Y-16867667D01*
X12047857Y-16915286D01*
X12038333Y-16953381D01*
X12028809Y-16972429D01*
X12019286Y-16981952D01*
X12000238Y-16991476D01*
X11981190Y-16991476D01*
X11962143Y-16981952D01*
X11952619Y-16972429D01*
X11943095Y-16953381D01*
X11933571Y-16915286D01*
X11933571Y-16867667D01*
X11943095Y-16829571D01*
X11952619Y-16810524D01*
X11962143Y-16801000D01*
X11981190Y-16791476D01*
X12114524Y-16791476D02*
X12238333Y-16791476D01*
X12171667Y-16867667D01*
X12200238Y-16867667D01*
X12219286Y-16877190D01*
X12228809Y-16886714D01*
X12238333Y-16905762D01*
X12238333Y-16953381D01*
X12228809Y-16972429D01*
X12219286Y-16981952D01*
X12200238Y-16991476D01*
X12143095Y-16991476D01*
X12124048Y-16981952D01*
X12114524Y-16972429D01*
X12305000Y-16791476D02*
X12438333Y-16791476D01*
X12352619Y-16991476D01*
X12600238Y-16858143D02*
X12600238Y-16991476D01*
X12552619Y-16781952D02*
X12505000Y-16924810D01*
X12628809Y-16924810D01*
X12695476Y-16791476D02*
X12695476Y-16829571D01*
X12771667Y-16791476D02*
X12771667Y-16829571D01*
X13066905Y-17067667D02*
X13057381Y-17058143D01*
X13038333Y-17029571D01*
X13028809Y-17010524D01*
X13019286Y-16981952D01*
X13009762Y-16934333D01*
X13009762Y-16896238D01*
X13019286Y-16848619D01*
X13028809Y-16820048D01*
X13038333Y-16801000D01*
X13057381Y-16772428D01*
X13066905Y-16762905D01*
X13228809Y-16858143D02*
X13228809Y-16991476D01*
X13181190Y-16781952D02*
X13133571Y-16924810D01*
X13257381Y-16924810D01*
X13343095Y-16991476D02*
X13381190Y-16991476D01*
X13400238Y-16981952D01*
X13409762Y-16972429D01*
X13428809Y-16943857D01*
X13438333Y-16905762D01*
X13438333Y-16829571D01*
X13428809Y-16810524D01*
X13419286Y-16801000D01*
X13400238Y-16791476D01*
X13362143Y-16791476D01*
X13343095Y-16801000D01*
X13333571Y-16810524D01*
X13324048Y-16829571D01*
X13324048Y-16877190D01*
X13333571Y-16896238D01*
X13343095Y-16905762D01*
X13362143Y-16915286D01*
X13400238Y-16915286D01*
X13419286Y-16905762D01*
X13428809Y-16896238D01*
X13438333Y-16877190D01*
X13676428Y-16991476D02*
X13676428Y-16791476D01*
X13762143Y-16991476D02*
X13762143Y-16886714D01*
X13752619Y-16867667D01*
X13733571Y-16858143D01*
X13705000Y-16858143D01*
X13685952Y-16867667D01*
X13676428Y-16877190D01*
X13885952Y-16991476D02*
X13866905Y-16981952D01*
X13857381Y-16972429D01*
X13847857Y-16953381D01*
X13847857Y-16896238D01*
X13857381Y-16877190D01*
X13866905Y-16867667D01*
X13885952Y-16858143D01*
X13914524Y-16858143D01*
X13933571Y-16867667D01*
X13943095Y-16877190D01*
X13952619Y-16896238D01*
X13952619Y-16953381D01*
X13943095Y-16972429D01*
X13933571Y-16981952D01*
X13914524Y-16991476D01*
X13885952Y-16991476D01*
X14066905Y-16991476D02*
X14047857Y-16981952D01*
X14038333Y-16962905D01*
X14038333Y-16791476D01*
X14219286Y-16981952D02*
X14200238Y-16991476D01*
X14162143Y-16991476D01*
X14143095Y-16981952D01*
X14133571Y-16962905D01*
X14133571Y-16886714D01*
X14143095Y-16867667D01*
X14162143Y-16858143D01*
X14200238Y-16858143D01*
X14219286Y-16867667D01*
X14228809Y-16886714D01*
X14228809Y-16905762D01*
X14133571Y-16924810D01*
X14305000Y-16981952D02*
X14324048Y-16991476D01*
X14362143Y-16991476D01*
X14381190Y-16981952D01*
X14390714Y-16962905D01*
X14390714Y-16953381D01*
X14381190Y-16934333D01*
X14362143Y-16924810D01*
X14333571Y-16924810D01*
X14314524Y-16915286D01*
X14305000Y-16896238D01*
X14305000Y-16886714D01*
X14314524Y-16867667D01*
X14333571Y-16858143D01*
X14362143Y-16858143D01*
X14381190Y-16867667D01*
X14457381Y-17067667D02*
X14466905Y-17058143D01*
X14485952Y-17029571D01*
X14495476Y-17010524D01*
X14505000Y-16981952D01*
X14514524Y-16934333D01*
X14514524Y-16896238D01*
X14505000Y-16848619D01*
X14495476Y-16820048D01*
X14485952Y-16801000D01*
X14466905Y-16772428D01*
X14457381Y-16762905D01*
D10*
X9395000Y-17115000D02*
X9495000Y-17215000D01*
X9495000Y-17115000D02*
X9395000Y-17215000D01*
X9495000Y-17165000D02*
G75*
G03*
X9495000Y-17165000I-50000J0D01*
G01*
D11*
X9857381Y-17255476D02*
X9743095Y-17255476D01*
X9800238Y-17255476D02*
X9800238Y-17055476D01*
X9781190Y-17084048D01*
X9762143Y-17103095D01*
X9743095Y-17112619D01*
X9943095Y-17236429D02*
X9952619Y-17245952D01*
X9943095Y-17255476D01*
X9933571Y-17245952D01*
X9943095Y-17236429D01*
X9943095Y-17255476D01*
X10076429Y-17055476D02*
X10095476Y-17055476D01*
X10114524Y-17065000D01*
X10124048Y-17074524D01*
X10133571Y-17093571D01*
X10143095Y-17131667D01*
X10143095Y-17179286D01*
X10133571Y-17217381D01*
X10124048Y-17236429D01*
X10114524Y-17245952D01*
X10095476Y-17255476D01*
X10076429Y-17255476D01*
X10057381Y-17245952D01*
X10047857Y-17236429D01*
X10038333Y-17217381D01*
X10028810Y-17179286D01*
X10028810Y-17131667D01*
X10038333Y-17093571D01*
X10047857Y-17074524D01*
X10057381Y-17065000D01*
X10076429Y-17055476D01*
X10266905Y-17055476D02*
X10285952Y-17055476D01*
X10305000Y-17065000D01*
X10314524Y-17074524D01*
X10324048Y-17093571D01*
X10333571Y-17131667D01*
X10333571Y-17179286D01*
X10324048Y-17217381D01*
X10314524Y-17236429D01*
X10305000Y-17245952D01*
X10285952Y-17255476D01*
X10266905Y-17255476D01*
X10247857Y-17245952D01*
X10238333Y-17236429D01*
X10228810Y-17217381D01*
X10219286Y-17179286D01*
X10219286Y-17131667D01*
X10228810Y-17093571D01*
X10238333Y-17074524D01*
X10247857Y-17065000D01*
X10266905Y-17055476D01*
X10457381Y-17055476D02*
X10476429Y-17055476D01*
X10495476Y-17065000D01*
X10505000Y-17074524D01*
X10514524Y-17093571D01*
X10524048Y-17131667D01*
X10524048Y-17179286D01*
X10514524Y-17217381D01*
X10505000Y-17236429D01*
X10495476Y-17245952D01*
X10476429Y-17255476D01*
X10457381Y-17255476D01*
X10438333Y-17245952D01*
X10428810Y-17236429D01*
X10419286Y-17217381D01*
X10409762Y-17179286D01*
X10409762Y-17131667D01*
X10419286Y-17093571D01*
X10428810Y-17074524D01*
X10438333Y-17065000D01*
X10457381Y-17055476D01*
X10609762Y-17255476D02*
X10609762Y-17122143D01*
X10609762Y-17141190D02*
X10619286Y-17131667D01*
X10638333Y-17122143D01*
X10666905Y-17122143D01*
X10685952Y-17131667D01*
X10695476Y-17150714D01*
X10695476Y-17255476D01*
X10695476Y-17150714D02*
X10705000Y-17131667D01*
X10724048Y-17122143D01*
X10752619Y-17122143D01*
X10771667Y-17131667D01*
X10781190Y-17150714D01*
X10781190Y-17255476D01*
X10876429Y-17255476D02*
X10876429Y-17122143D01*
X10876429Y-17141190D02*
X10885952Y-17131667D01*
X10905000Y-17122143D01*
X10933571Y-17122143D01*
X10952619Y-17131667D01*
X10962143Y-17150714D01*
X10962143Y-17255476D01*
X10962143Y-17150714D02*
X10971667Y-17131667D01*
X10990714Y-17122143D01*
X11019286Y-17122143D01*
X11038333Y-17131667D01*
X11047857Y-17150714D01*
X11047857Y-17255476D01*
X11438333Y-17045952D02*
X11266905Y-17303095D01*
X11695476Y-17055476D02*
X11714524Y-17055476D01*
X11733571Y-17065000D01*
X11743095Y-17074524D01*
X11752619Y-17093571D01*
X11762143Y-17131667D01*
X11762143Y-17179286D01*
X11752619Y-17217381D01*
X11743095Y-17236429D01*
X11733571Y-17245952D01*
X11714524Y-17255476D01*
X11695476Y-17255476D01*
X11676428Y-17245952D01*
X11666905Y-17236429D01*
X11657381Y-17217381D01*
X11647857Y-17179286D01*
X11647857Y-17131667D01*
X11657381Y-17093571D01*
X11666905Y-17074524D01*
X11676428Y-17065000D01*
X11695476Y-17055476D01*
X11847857Y-17236429D02*
X11857381Y-17245952D01*
X11847857Y-17255476D01*
X11838333Y-17245952D01*
X11847857Y-17236429D01*
X11847857Y-17255476D01*
X11981190Y-17055476D02*
X12000238Y-17055476D01*
X12019286Y-17065000D01*
X12028809Y-17074524D01*
X12038333Y-17093571D01*
X12047857Y-17131667D01*
X12047857Y-17179286D01*
X12038333Y-17217381D01*
X12028809Y-17236429D01*
X12019286Y-17245952D01*
X12000238Y-17255476D01*
X11981190Y-17255476D01*
X11962143Y-17245952D01*
X11952619Y-17236429D01*
X11943095Y-17217381D01*
X11933571Y-17179286D01*
X11933571Y-17131667D01*
X11943095Y-17093571D01*
X11952619Y-17074524D01*
X11962143Y-17065000D01*
X11981190Y-17055476D01*
X12114524Y-17055476D02*
X12238333Y-17055476D01*
X12171667Y-17131667D01*
X12200238Y-17131667D01*
X12219286Y-17141190D01*
X12228809Y-17150714D01*
X12238333Y-17169762D01*
X12238333Y-17217381D01*
X12228809Y-17236429D01*
X12219286Y-17245952D01*
X12200238Y-17255476D01*
X12143095Y-17255476D01*
X12124048Y-17245952D01*
X12114524Y-17236429D01*
X12333571Y-17255476D02*
X12371667Y-17255476D01*
X12390714Y-17245952D01*
X12400238Y-17236429D01*
X12419286Y-17207857D01*
X12428809Y-17169762D01*
X12428809Y-17093571D01*
X12419286Y-17074524D01*
X12409762Y-17065000D01*
X12390714Y-17055476D01*
X12352619Y-17055476D01*
X12333571Y-17065000D01*
X12324048Y-17074524D01*
X12314524Y-17093571D01*
X12314524Y-17141190D01*
X12324048Y-17160238D01*
X12333571Y-17169762D01*
X12352619Y-17179286D01*
X12390714Y-17179286D01*
X12409762Y-17169762D01*
X12419286Y-17160238D01*
X12428809Y-17141190D01*
X12600238Y-17122143D02*
X12600238Y-17255476D01*
X12552619Y-17045952D02*
X12505000Y-17188810D01*
X12628809Y-17188810D01*
X12695476Y-17055476D02*
X12695476Y-17093571D01*
X12771667Y-17055476D02*
X12771667Y-17093571D01*
X13066905Y-17331667D02*
X13057381Y-17322143D01*
X13038333Y-17293571D01*
X13028809Y-17274524D01*
X13019286Y-17245952D01*
X13009762Y-17198333D01*
X13009762Y-17160238D01*
X13019286Y-17112619D01*
X13028809Y-17084048D01*
X13038333Y-17065000D01*
X13057381Y-17036429D01*
X13066905Y-17026905D01*
X13238333Y-17055476D02*
X13143095Y-17055476D01*
X13133571Y-17150714D01*
X13143095Y-17141190D01*
X13162143Y-17131667D01*
X13209762Y-17131667D01*
X13228809Y-17141190D01*
X13238333Y-17150714D01*
X13247857Y-17169762D01*
X13247857Y-17217381D01*
X13238333Y-17236429D01*
X13228809Y-17245952D01*
X13209762Y-17255476D01*
X13162143Y-17255476D01*
X13143095Y-17245952D01*
X13133571Y-17236429D01*
X13485952Y-17255476D02*
X13485952Y-17055476D01*
X13571667Y-17255476D02*
X13571667Y-17150714D01*
X13562143Y-17131667D01*
X13543095Y-17122143D01*
X13514524Y-17122143D01*
X13495476Y-17131667D01*
X13485952Y-17141190D01*
X13695476Y-17255476D02*
X13676428Y-17245952D01*
X13666905Y-17236429D01*
X13657381Y-17217381D01*
X13657381Y-17160238D01*
X13666905Y-17141190D01*
X13676428Y-17131667D01*
X13695476Y-17122143D01*
X13724048Y-17122143D01*
X13743095Y-17131667D01*
X13752619Y-17141190D01*
X13762143Y-17160238D01*
X13762143Y-17217381D01*
X13752619Y-17236429D01*
X13743095Y-17245952D01*
X13724048Y-17255476D01*
X13695476Y-17255476D01*
X13876428Y-17255476D02*
X13857381Y-17245952D01*
X13847857Y-17226905D01*
X13847857Y-17055476D01*
X14028809Y-17245952D02*
X14009762Y-17255476D01*
X13971667Y-17255476D01*
X13952619Y-17245952D01*
X13943095Y-17226905D01*
X13943095Y-17150714D01*
X13952619Y-17131667D01*
X13971667Y-17122143D01*
X14009762Y-17122143D01*
X14028809Y-17131667D01*
X14038333Y-17150714D01*
X14038333Y-17169762D01*
X13943095Y-17188810D01*
X14114524Y-17245952D02*
X14133571Y-17255476D01*
X14171667Y-17255476D01*
X14190714Y-17245952D01*
X14200238Y-17226905D01*
X14200238Y-17217381D01*
X14190714Y-17198333D01*
X14171667Y-17188810D01*
X14143095Y-17188810D01*
X14124048Y-17179286D01*
X14114524Y-17160238D01*
X14114524Y-17150714D01*
X14124048Y-17131667D01*
X14143095Y-17122143D01*
X14171667Y-17122143D01*
X14190714Y-17131667D01*
X14266905Y-17331667D02*
X14276428Y-17322143D01*
X14295476Y-17293571D01*
X14305000Y-17274524D01*
X14314524Y-17245952D01*
X14324048Y-17198333D01*
X14324048Y-17160238D01*
X14314524Y-17112619D01*
X14305000Y-17084048D01*
X14295476Y-17065000D01*
X14276428Y-17036429D01*
X14266905Y-17026905D01*
D17*
X9310000Y-17336500D02*
X9495000Y-17521500D01*
X9495000Y-17336500D02*
X9310000Y-17521500D01*
X9402500Y-17336500D02*
X9402500Y-17521500D01*
X9310000Y-17429000D02*
X9495000Y-17429000D01*
D11*
X9857381Y-17519476D02*
X9743095Y-17519476D01*
X9800238Y-17519476D02*
X9800238Y-17319476D01*
X9781190Y-17348048D01*
X9762143Y-17367095D01*
X9743095Y-17376619D01*
X9943095Y-17500429D02*
X9952619Y-17509952D01*
X9943095Y-17519476D01*
X9933571Y-17509952D01*
X9943095Y-17500429D01*
X9943095Y-17519476D01*
X10066905Y-17405190D02*
X10047857Y-17395667D01*
X10038333Y-17386143D01*
X10028810Y-17367095D01*
X10028810Y-17357571D01*
X10038333Y-17338524D01*
X10047857Y-17329000D01*
X10066905Y-17319476D01*
X10105000Y-17319476D01*
X10124048Y-17329000D01*
X10133571Y-17338524D01*
X10143095Y-17357571D01*
X10143095Y-17367095D01*
X10133571Y-17386143D01*
X10124048Y-17395667D01*
X10105000Y-17405190D01*
X10066905Y-17405190D01*
X10047857Y-17414714D01*
X10038333Y-17424238D01*
X10028810Y-17443286D01*
X10028810Y-17481381D01*
X10038333Y-17500429D01*
X10047857Y-17509952D01*
X10066905Y-17519476D01*
X10105000Y-17519476D01*
X10124048Y-17509952D01*
X10133571Y-17500429D01*
X10143095Y-17481381D01*
X10143095Y-17443286D01*
X10133571Y-17424238D01*
X10124048Y-17414714D01*
X10105000Y-17405190D01*
X10324048Y-17319476D02*
X10228810Y-17319476D01*
X10219286Y-17414714D01*
X10228810Y-17405190D01*
X10247857Y-17395667D01*
X10295476Y-17395667D01*
X10314524Y-17405190D01*
X10324048Y-17414714D01*
X10333571Y-17433762D01*
X10333571Y-17481381D01*
X10324048Y-17500429D01*
X10314524Y-17509952D01*
X10295476Y-17519476D01*
X10247857Y-17519476D01*
X10228810Y-17509952D01*
X10219286Y-17500429D01*
X10457381Y-17319476D02*
X10476429Y-17319476D01*
X10495476Y-17329000D01*
X10505000Y-17338524D01*
X10514524Y-17357571D01*
X10524048Y-17395667D01*
X10524048Y-17443286D01*
X10514524Y-17481381D01*
X10505000Y-17500429D01*
X10495476Y-17509952D01*
X10476429Y-17519476D01*
X10457381Y-17519476D01*
X10438333Y-17509952D01*
X10428810Y-17500429D01*
X10419286Y-17481381D01*
X10409762Y-17443286D01*
X10409762Y-17395667D01*
X10419286Y-17357571D01*
X10428810Y-17338524D01*
X10438333Y-17329000D01*
X10457381Y-17319476D01*
X10609762Y-17519476D02*
X10609762Y-17386143D01*
X10609762Y-17405190D02*
X10619286Y-17395667D01*
X10638333Y-17386143D01*
X10666905Y-17386143D01*
X10685952Y-17395667D01*
X10695476Y-17414714D01*
X10695476Y-17519476D01*
X10695476Y-17414714D02*
X10705000Y-17395667D01*
X10724048Y-17386143D01*
X10752619Y-17386143D01*
X10771667Y-17395667D01*
X10781190Y-17414714D01*
X10781190Y-17519476D01*
X10876429Y-17519476D02*
X10876429Y-17386143D01*
X10876429Y-17405190D02*
X10885952Y-17395667D01*
X10905000Y-17386143D01*
X10933571Y-17386143D01*
X10952619Y-17395667D01*
X10962143Y-17414714D01*
X10962143Y-17519476D01*
X10962143Y-17414714D02*
X10971667Y-17395667D01*
X10990714Y-17386143D01*
X11019286Y-17386143D01*
X11038333Y-17395667D01*
X11047857Y-17414714D01*
X11047857Y-17519476D01*
X11438333Y-17309952D02*
X11266905Y-17567095D01*
X11695476Y-17319476D02*
X11714524Y-17319476D01*
X11733571Y-17329000D01*
X11743095Y-17338524D01*
X11752619Y-17357571D01*
X11762143Y-17395667D01*
X11762143Y-17443286D01*
X11752619Y-17481381D01*
X11743095Y-17500429D01*
X11733571Y-17509952D01*
X11714524Y-17519476D01*
X11695476Y-17519476D01*
X11676428Y-17509952D01*
X11666905Y-17500429D01*
X11657381Y-17481381D01*
X11647857Y-17443286D01*
X11647857Y-17395667D01*
X11657381Y-17357571D01*
X11666905Y-17338524D01*
X11676428Y-17329000D01*
X11695476Y-17319476D01*
X11847857Y-17500429D02*
X11857381Y-17509952D01*
X11847857Y-17519476D01*
X11838333Y-17509952D01*
X11847857Y-17500429D01*
X11847857Y-17519476D01*
X11981190Y-17319476D02*
X12000238Y-17319476D01*
X12019286Y-17329000D01*
X12028809Y-17338524D01*
X12038333Y-17357571D01*
X12047857Y-17395667D01*
X12047857Y-17443286D01*
X12038333Y-17481381D01*
X12028809Y-17500429D01*
X12019286Y-17509952D01*
X12000238Y-17519476D01*
X11981190Y-17519476D01*
X11962143Y-17509952D01*
X11952619Y-17500429D01*
X11943095Y-17481381D01*
X11933571Y-17443286D01*
X11933571Y-17395667D01*
X11943095Y-17357571D01*
X11952619Y-17338524D01*
X11962143Y-17329000D01*
X11981190Y-17319476D01*
X12114524Y-17319476D02*
X12247857Y-17319476D01*
X12162143Y-17519476D01*
X12314524Y-17338524D02*
X12324048Y-17329000D01*
X12343095Y-17319476D01*
X12390714Y-17319476D01*
X12409762Y-17329000D01*
X12419286Y-17338524D01*
X12428809Y-17357571D01*
X12428809Y-17376619D01*
X12419286Y-17405190D01*
X12305000Y-17519476D01*
X12428809Y-17519476D01*
X12543095Y-17405190D02*
X12524048Y-17395667D01*
X12514524Y-17386143D01*
X12505000Y-17367095D01*
X12505000Y-17357571D01*
X12514524Y-17338524D01*
X12524048Y-17329000D01*
X12543095Y-17319476D01*
X12581190Y-17319476D01*
X12600238Y-17329000D01*
X12609762Y-17338524D01*
X12619286Y-17357571D01*
X12619286Y-17367095D01*
X12609762Y-17386143D01*
X12600238Y-17395667D01*
X12581190Y-17405190D01*
X12543095Y-17405190D01*
X12524048Y-17414714D01*
X12514524Y-17424238D01*
X12505000Y-17443286D01*
X12505000Y-17481381D01*
X12514524Y-17500429D01*
X12524048Y-17509952D01*
X12543095Y-17519476D01*
X12581190Y-17519476D01*
X12600238Y-17509952D01*
X12609762Y-17500429D01*
X12619286Y-17481381D01*
X12619286Y-17443286D01*
X12609762Y-17424238D01*
X12600238Y-17414714D01*
X12581190Y-17405190D01*
X12695476Y-17319476D02*
X12695476Y-17357571D01*
X12771667Y-17319476D02*
X12771667Y-17357571D01*
X13066905Y-17595667D02*
X13057381Y-17586143D01*
X13038333Y-17557571D01*
X13028809Y-17538524D01*
X13019286Y-17509952D01*
X13009762Y-17462333D01*
X13009762Y-17424238D01*
X13019286Y-17376619D01*
X13028809Y-17348048D01*
X13038333Y-17329000D01*
X13057381Y-17300429D01*
X13066905Y-17290905D01*
X13124048Y-17319476D02*
X13247857Y-17319476D01*
X13181190Y-17395667D01*
X13209762Y-17395667D01*
X13228809Y-17405190D01*
X13238333Y-17414714D01*
X13247857Y-17433762D01*
X13247857Y-17481381D01*
X13238333Y-17500429D01*
X13228809Y-17509952D01*
X13209762Y-17519476D01*
X13152619Y-17519476D01*
X13133571Y-17509952D01*
X13124048Y-17500429D01*
X13485952Y-17519476D02*
X13485952Y-17319476D01*
X13571667Y-17519476D02*
X13571667Y-17414714D01*
X13562143Y-17395667D01*
X13543095Y-17386143D01*
X13514524Y-17386143D01*
X13495476Y-17395667D01*
X13485952Y-17405190D01*
X13695476Y-17519476D02*
X13676428Y-17509952D01*
X13666905Y-17500429D01*
X13657381Y-17481381D01*
X13657381Y-17424238D01*
X13666905Y-17405190D01*
X13676428Y-17395667D01*
X13695476Y-17386143D01*
X13724048Y-17386143D01*
X13743095Y-17395667D01*
X13752619Y-17405190D01*
X13762143Y-17424238D01*
X13762143Y-17481381D01*
X13752619Y-17500429D01*
X13743095Y-17509952D01*
X13724048Y-17519476D01*
X13695476Y-17519476D01*
X13876428Y-17519476D02*
X13857381Y-17509952D01*
X13847857Y-17490905D01*
X13847857Y-17319476D01*
X14028809Y-17509952D02*
X14009762Y-17519476D01*
X13971667Y-17519476D01*
X13952619Y-17509952D01*
X13943095Y-17490905D01*
X13943095Y-17414714D01*
X13952619Y-17395667D01*
X13971667Y-17386143D01*
X14009762Y-17386143D01*
X14028809Y-17395667D01*
X14038333Y-17414714D01*
X14038333Y-17433762D01*
X13943095Y-17452810D01*
X14114524Y-17509952D02*
X14133571Y-17519476D01*
X14171667Y-17519476D01*
X14190714Y-17509952D01*
X14200238Y-17490905D01*
X14200238Y-17481381D01*
X14190714Y-17462333D01*
X14171667Y-17452810D01*
X14143095Y-17452810D01*
X14124048Y-17443286D01*
X14114524Y-17424238D01*
X14114524Y-17414714D01*
X14124048Y-17395667D01*
X14143095Y-17386143D01*
X14171667Y-17386143D01*
X14190714Y-17395667D01*
X14266905Y-17595667D02*
X14276428Y-17586143D01*
X14295476Y-17557571D01*
X14305000Y-17538524D01*
X14314524Y-17509952D01*
X14324048Y-17462333D01*
X14324048Y-17424238D01*
X14314524Y-17376619D01*
X14305000Y-17348048D01*
X14295476Y-17329000D01*
X14276428Y-17300429D01*
X14266905Y-17290905D01*
X9295000Y-17634000D02*
X9495000Y-17834000D01*
X9495000Y-17634000D02*
X9295000Y-17834000D01*
X9465711Y-17804711D02*
X9465711Y-17663289D01*
X9324289Y-17663289D01*
X9324289Y-17804711D01*
X9465711Y-17804711D01*
X9733571Y-17624476D02*
X9857381Y-17624476D01*
X9790714Y-17700667D01*
X9819286Y-17700667D01*
X9838333Y-17710190D01*
X9847857Y-17719714D01*
X9857381Y-17738762D01*
X9857381Y-17786381D01*
X9847857Y-17805429D01*
X9838333Y-17814952D01*
X9819286Y-17824476D01*
X9762143Y-17824476D01*
X9743095Y-17814952D01*
X9733571Y-17805429D01*
X9943095Y-17805429D02*
X9952619Y-17814952D01*
X9943095Y-17824476D01*
X9933571Y-17814952D01*
X9943095Y-17805429D01*
X9943095Y-17824476D01*
X10028810Y-17643524D02*
X10038333Y-17634000D01*
X10057381Y-17624476D01*
X10105000Y-17624476D01*
X10124048Y-17634000D01*
X10133571Y-17643524D01*
X10143095Y-17662571D01*
X10143095Y-17681619D01*
X10133571Y-17710190D01*
X10019286Y-17824476D01*
X10143095Y-17824476D01*
X10266905Y-17624476D02*
X10285952Y-17624476D01*
X10305000Y-17634000D01*
X10314524Y-17643524D01*
X10324048Y-17662571D01*
X10333571Y-17700667D01*
X10333571Y-17748286D01*
X10324048Y-17786381D01*
X10314524Y-17805429D01*
X10305000Y-17814952D01*
X10285952Y-17824476D01*
X10266905Y-17824476D01*
X10247857Y-17814952D01*
X10238333Y-17805429D01*
X10228810Y-17786381D01*
X10219286Y-17748286D01*
X10219286Y-17700667D01*
X10228810Y-17662571D01*
X10238333Y-17643524D01*
X10247857Y-17634000D01*
X10266905Y-17624476D01*
X10457381Y-17624476D02*
X10476429Y-17624476D01*
X10495476Y-17634000D01*
X10505000Y-17643524D01*
X10514524Y-17662571D01*
X10524048Y-17700667D01*
X10524048Y-17748286D01*
X10514524Y-17786381D01*
X10505000Y-17805429D01*
X10495476Y-17814952D01*
X10476429Y-17824476D01*
X10457381Y-17824476D01*
X10438333Y-17814952D01*
X10428810Y-17805429D01*
X10419286Y-17786381D01*
X10409762Y-17748286D01*
X10409762Y-17700667D01*
X10419286Y-17662571D01*
X10428810Y-17643524D01*
X10438333Y-17634000D01*
X10457381Y-17624476D01*
X10609762Y-17824476D02*
X10609762Y-17691143D01*
X10609762Y-17710190D02*
X10619286Y-17700667D01*
X10638333Y-17691143D01*
X10666905Y-17691143D01*
X10685952Y-17700667D01*
X10695476Y-17719714D01*
X10695476Y-17824476D01*
X10695476Y-17719714D02*
X10705000Y-17700667D01*
X10724048Y-17691143D01*
X10752619Y-17691143D01*
X10771667Y-17700667D01*
X10781190Y-17719714D01*
X10781190Y-17824476D01*
X10876429Y-17824476D02*
X10876429Y-17691143D01*
X10876429Y-17710190D02*
X10885952Y-17700667D01*
X10905000Y-17691143D01*
X10933571Y-17691143D01*
X10952619Y-17700667D01*
X10962143Y-17719714D01*
X10962143Y-17824476D01*
X10962143Y-17719714D02*
X10971667Y-17700667D01*
X10990714Y-17691143D01*
X11019286Y-17691143D01*
X11038333Y-17700667D01*
X11047857Y-17719714D01*
X11047857Y-17824476D01*
X11438333Y-17614952D02*
X11266905Y-17872095D01*
X11695476Y-17624476D02*
X11714524Y-17624476D01*
X11733571Y-17634000D01*
X11743095Y-17643524D01*
X11752619Y-17662571D01*
X11762143Y-17700667D01*
X11762143Y-17748286D01*
X11752619Y-17786381D01*
X11743095Y-17805429D01*
X11733571Y-17814952D01*
X11714524Y-17824476D01*
X11695476Y-17824476D01*
X11676428Y-17814952D01*
X11666905Y-17805429D01*
X11657381Y-17786381D01*
X11647857Y-17748286D01*
X11647857Y-17700667D01*
X11657381Y-17662571D01*
X11666905Y-17643524D01*
X11676428Y-17634000D01*
X11695476Y-17624476D01*
X11847857Y-17805429D02*
X11857381Y-17814952D01*
X11847857Y-17824476D01*
X11838333Y-17814952D01*
X11847857Y-17805429D01*
X11847857Y-17824476D01*
X12047857Y-17824476D02*
X11933571Y-17824476D01*
X11990714Y-17824476D02*
X11990714Y-17624476D01*
X11971667Y-17653048D01*
X11952619Y-17672095D01*
X11933571Y-17681619D01*
X12124048Y-17643524D02*
X12133571Y-17634000D01*
X12152619Y-17624476D01*
X12200238Y-17624476D01*
X12219286Y-17634000D01*
X12228809Y-17643524D01*
X12238333Y-17662571D01*
X12238333Y-17681619D01*
X12228809Y-17710190D01*
X12114524Y-17824476D01*
X12238333Y-17824476D01*
X12409762Y-17624476D02*
X12371667Y-17624476D01*
X12352619Y-17634000D01*
X12343095Y-17643524D01*
X12324048Y-17672095D01*
X12314524Y-17710190D01*
X12314524Y-17786381D01*
X12324048Y-17805429D01*
X12333571Y-17814952D01*
X12352619Y-17824476D01*
X12390714Y-17824476D01*
X12409762Y-17814952D01*
X12419286Y-17805429D01*
X12428809Y-17786381D01*
X12428809Y-17738762D01*
X12419286Y-17719714D01*
X12409762Y-17710190D01*
X12390714Y-17700667D01*
X12352619Y-17700667D01*
X12333571Y-17710190D01*
X12324048Y-17719714D01*
X12314524Y-17738762D01*
X12552619Y-17624476D02*
X12571667Y-17624476D01*
X12590714Y-17634000D01*
X12600238Y-17643524D01*
X12609762Y-17662571D01*
X12619286Y-17700667D01*
X12619286Y-17748286D01*
X12609762Y-17786381D01*
X12600238Y-17805429D01*
X12590714Y-17814952D01*
X12571667Y-17824476D01*
X12552619Y-17824476D01*
X12533571Y-17814952D01*
X12524048Y-17805429D01*
X12514524Y-17786381D01*
X12505000Y-17748286D01*
X12505000Y-17700667D01*
X12514524Y-17662571D01*
X12524048Y-17643524D01*
X12533571Y-17634000D01*
X12552619Y-17624476D01*
X12695476Y-17624476D02*
X12695476Y-17662571D01*
X12771667Y-17624476D02*
X12771667Y-17662571D01*
X13066905Y-17900667D02*
X13057381Y-17891143D01*
X13038333Y-17862571D01*
X13028809Y-17843524D01*
X13019286Y-17814952D01*
X13009762Y-17767333D01*
X13009762Y-17729238D01*
X13019286Y-17681619D01*
X13028809Y-17653048D01*
X13038333Y-17634000D01*
X13057381Y-17605429D01*
X13066905Y-17595905D01*
X13228809Y-17691143D02*
X13228809Y-17824476D01*
X13181190Y-17614952D02*
X13133571Y-17757810D01*
X13257381Y-17757810D01*
X13485952Y-17824476D02*
X13485952Y-17624476D01*
X13571667Y-17824476D02*
X13571667Y-17719714D01*
X13562143Y-17700667D01*
X13543095Y-17691143D01*
X13514524Y-17691143D01*
X13495476Y-17700667D01*
X13485952Y-17710190D01*
X13695476Y-17824476D02*
X13676428Y-17814952D01*
X13666905Y-17805429D01*
X13657381Y-17786381D01*
X13657381Y-17729238D01*
X13666905Y-17710190D01*
X13676428Y-17700667D01*
X13695476Y-17691143D01*
X13724048Y-17691143D01*
X13743095Y-17700667D01*
X13752619Y-17710190D01*
X13762143Y-17729238D01*
X13762143Y-17786381D01*
X13752619Y-17805429D01*
X13743095Y-17814952D01*
X13724048Y-17824476D01*
X13695476Y-17824476D01*
X13876428Y-17824476D02*
X13857381Y-17814952D01*
X13847857Y-17795905D01*
X13847857Y-17624476D01*
X14028809Y-17814952D02*
X14009762Y-17824476D01*
X13971667Y-17824476D01*
X13952619Y-17814952D01*
X13943095Y-17795905D01*
X13943095Y-17719714D01*
X13952619Y-17700667D01*
X13971667Y-17691143D01*
X14009762Y-17691143D01*
X14028809Y-17700667D01*
X14038333Y-17719714D01*
X14038333Y-17738762D01*
X13943095Y-17757810D01*
X14114524Y-17814952D02*
X14133571Y-17824476D01*
X14171667Y-17824476D01*
X14190714Y-17814952D01*
X14200238Y-17795905D01*
X14200238Y-17786381D01*
X14190714Y-17767333D01*
X14171667Y-17757810D01*
X14143095Y-17757810D01*
X14124048Y-17748286D01*
X14114524Y-17729238D01*
X14114524Y-17719714D01*
X14124048Y-17700667D01*
X14143095Y-17691143D01*
X14171667Y-17691143D01*
X14190714Y-17700667D01*
X14266905Y-17900667D02*
X14276428Y-17891143D01*
X14295476Y-17862571D01*
X14305000Y-17843524D01*
X14314524Y-17814952D01*
X14324048Y-17767333D01*
X14324048Y-17729238D01*
X14314524Y-17681619D01*
X14305000Y-17653048D01*
X14295476Y-17634000D01*
X14276428Y-17605429D01*
X14266905Y-17595905D01*
M02*
