%TF.GenerationSoftware,KiCad,Pcbnew,(6.0.7)*%
%TF.CreationDate,2022-10-27T14:15:55+02:00*%
%TF.ProjectId,Projet,50726f6a-6574-42e6-9b69-6361645f7063,1.0*%
%TF.SameCoordinates,Original*%
%TF.FileFunction,Drillmap*%
%TF.FilePolarity,Positive*%
%FSLAX45Y45*%
G04 Gerber Fmt 4.5, Leading zero omitted, Abs format (unit mm)*
G04 Created by KiCad (PCBNEW (6.0.7)) date 2022-10-27 14:15:55*
%MOMM*%
%LPD*%
G01*
G04 APERTURE LIST*
%ADD10C,0.100000*%
%ADD11C,0.200000*%
G04 APERTURE END LIST*
D10*
X20300000Y-15199998D02*
G75*
G03*
X20809998Y-14690000I0J509998D01*
G01*
X20000000Y-15200000D02*
X20300000Y-15200000D01*
X20800000Y-10000000D02*
G75*
G03*
X20300000Y-9500000I-500000J0D01*
G01*
X20000000Y-9500000D02*
X20300000Y-9500000D01*
X9500000Y-14700000D02*
G75*
G03*
X10000000Y-15200000I500000J0D01*
G01*
X9500000Y-14000000D02*
X9500000Y-14700000D01*
X20800000Y-10000000D02*
X20809998Y-14690000D01*
X9500000Y-14000000D02*
X9500000Y-10000000D01*
X10000000Y-9500000D02*
G75*
G03*
X9500000Y-10000000I0J-500000D01*
G01*
X10000000Y-15200000D02*
X20000000Y-15200000D01*
X10000000Y-9500000D02*
X20000000Y-9500000D01*
D11*
X9752619Y-15515476D02*
X9752619Y-15315476D01*
X9800238Y-15315476D01*
X9828810Y-15325000D01*
X9847857Y-15344048D01*
X9857381Y-15363095D01*
X9866905Y-15401190D01*
X9866905Y-15429762D01*
X9857381Y-15467857D01*
X9847857Y-15486905D01*
X9828810Y-15505952D01*
X9800238Y-15515476D01*
X9752619Y-15515476D01*
X9952619Y-15515476D02*
X9952619Y-15382143D01*
X9952619Y-15420238D02*
X9962143Y-15401190D01*
X9971667Y-15391667D01*
X9990714Y-15382143D01*
X10009762Y-15382143D01*
X10076429Y-15515476D02*
X10076429Y-15382143D01*
X10076429Y-15315476D02*
X10066905Y-15325000D01*
X10076429Y-15334524D01*
X10085952Y-15325000D01*
X10076429Y-15315476D01*
X10076429Y-15334524D01*
X10200238Y-15515476D02*
X10181190Y-15505952D01*
X10171667Y-15486905D01*
X10171667Y-15315476D01*
X10305000Y-15515476D02*
X10285952Y-15505952D01*
X10276429Y-15486905D01*
X10276429Y-15315476D01*
X10533571Y-15515476D02*
X10533571Y-15315476D01*
X10600238Y-15458333D01*
X10666905Y-15315476D01*
X10666905Y-15515476D01*
X10847857Y-15515476D02*
X10847857Y-15410714D01*
X10838333Y-15391667D01*
X10819286Y-15382143D01*
X10781190Y-15382143D01*
X10762143Y-15391667D01*
X10847857Y-15505952D02*
X10828810Y-15515476D01*
X10781190Y-15515476D01*
X10762143Y-15505952D01*
X10752619Y-15486905D01*
X10752619Y-15467857D01*
X10762143Y-15448809D01*
X10781190Y-15439286D01*
X10828810Y-15439286D01*
X10847857Y-15429762D01*
X10943095Y-15382143D02*
X10943095Y-15582143D01*
X10943095Y-15391667D02*
X10962143Y-15382143D01*
X11000238Y-15382143D01*
X11019286Y-15391667D01*
X11028810Y-15401190D01*
X11038333Y-15420238D01*
X11038333Y-15477381D01*
X11028810Y-15496428D01*
X11019286Y-15505952D01*
X11000238Y-15515476D01*
X10962143Y-15515476D01*
X10943095Y-15505952D01*
X11124048Y-15496428D02*
X11133571Y-15505952D01*
X11124048Y-15515476D01*
X11114524Y-15505952D01*
X11124048Y-15496428D01*
X11124048Y-15515476D01*
X11124048Y-15391667D02*
X11133571Y-15401190D01*
X11124048Y-15410714D01*
X11114524Y-15401190D01*
X11124048Y-15391667D01*
X11124048Y-15410714D01*
M02*
