%TF.GenerationSoftware,KiCad,Pcbnew,(6.0.7)*%
%TF.CreationDate,2022-10-27T14:16:22+02:00*%
%TF.ProjectId,Projet,50726f6a-6574-42e6-9b69-6361645f7063,1.0*%
%TF.SameCoordinates,Original*%
%TF.FileFunction,Soldermask,Top*%
%TF.FilePolarity,Negative*%
%FSLAX46Y46*%
G04 Gerber Fmt 4.6, Leading zero omitted, Abs format (unit mm)*
G04 Created by KiCad (PCBNEW (6.0.7)) date 2022-10-27 14:16:22*
%MOMM*%
%LPD*%
G01*
G04 APERTURE LIST*
G04 Aperture macros list*
%AMRoundRect*
0 Rectangle with rounded corners*
0 $1 Rounding radius*
0 $2 $3 $4 $5 $6 $7 $8 $9 X,Y pos of 4 corners*
0 Add a 4 corners polygon primitive as box body*
4,1,4,$2,$3,$4,$5,$6,$7,$8,$9,$2,$3,0*
0 Add four circle primitives for the rounded corners*
1,1,$1+$1,$2,$3*
1,1,$1+$1,$4,$5*
1,1,$1+$1,$6,$7*
1,1,$1+$1,$8,$9*
0 Add four rect primitives between the rounded corners*
20,1,$1+$1,$2,$3,$4,$5,0*
20,1,$1+$1,$4,$5,$6,$7,0*
20,1,$1+$1,$6,$7,$8,$9,0*
20,1,$1+$1,$8,$9,$2,$3,0*%
%AMFreePoly0*
4,1,6,0.500000,-0.750000,-0.650000,-0.750000,-0.150000,0.000000,-0.650000,0.750000,0.500000,0.750000,0.500000,-0.750000,0.500000,-0.750000,$1*%
%AMFreePoly1*
4,1,6,1.000000,0.000000,0.500000,-0.750000,-0.500000,-0.750000,-0.500000,0.750000,0.500000,0.750000,1.000000,0.000000,1.000000,0.000000,$1*%
G04 Aperture macros list end*
%ADD10O,1.950000X1.700000*%
%ADD11RoundRect,0.250000X0.725000X-0.600000X0.725000X0.600000X-0.725000X0.600000X-0.725000X-0.600000X0*%
%ADD12R,2.775000X2.775000*%
%ADD13C,2.775000*%
%ADD14RoundRect,0.237500X0.237500X-0.300000X0.237500X0.300000X-0.237500X0.300000X-0.237500X-0.300000X0*%
%ADD15RoundRect,0.237500X0.237500X-0.250000X0.237500X0.250000X-0.237500X0.250000X-0.237500X-0.250000X0*%
%ADD16RoundRect,0.237500X0.300000X0.237500X-0.300000X0.237500X-0.300000X-0.237500X0.300000X-0.237500X0*%
%ADD17FreePoly0,270.000000*%
%ADD18FreePoly1,270.000000*%
%ADD19R,2.400000X0.740000*%
%ADD20RoundRect,0.237500X-0.237500X0.250000X-0.237500X-0.250000X0.237500X-0.250000X0.237500X0.250000X0*%
%ADD21RoundRect,0.237500X-0.237500X0.300000X-0.237500X-0.300000X0.237500X-0.300000X0.237500X0.300000X0*%
%ADD22RoundRect,0.237500X-0.300000X-0.237500X0.300000X-0.237500X0.300000X0.237500X-0.300000X0.237500X0*%
%ADD23FreePoly1,180.000000*%
%ADD24FreePoly0,180.000000*%
%ADD25RoundRect,0.237500X0.250000X0.237500X-0.250000X0.237500X-0.250000X-0.237500X0.250000X-0.237500X0*%
%ADD26RoundRect,0.250000X0.600000X0.725000X-0.600000X0.725000X-0.600000X-0.725000X0.600000X-0.725000X0*%
%ADD27O,1.700000X1.950000*%
%ADD28FreePoly1,0.000000*%
%ADD29FreePoly0,0.000000*%
%ADD30R,1.300000X1.000000*%
%ADD31RoundRect,0.075000X-0.700000X-0.075000X0.700000X-0.075000X0.700000X0.075000X-0.700000X0.075000X0*%
%ADD32RoundRect,0.075000X-0.075000X-0.700000X0.075000X-0.700000X0.075000X0.700000X-0.075000X0.700000X0*%
%ADD33C,0.800000*%
%ADD34C,6.400000*%
%ADD35R,1.200000X0.600000*%
%ADD36RoundRect,0.150000X0.150000X-0.725000X0.150000X0.725000X-0.150000X0.725000X-0.150000X-0.725000X0*%
%ADD37R,2.100000X1.400000*%
%ADD38RoundRect,0.250000X-0.600000X-0.725000X0.600000X-0.725000X0.600000X0.725000X-0.600000X0.725000X0*%
%ADD39R,1.700000X1.700000*%
%ADD40O,1.700000X1.700000*%
%ADD41R,1.850000X3.200000*%
%ADD42R,1.850000X0.900000*%
%ADD43RoundRect,0.250000X0.750000X-0.600000X0.750000X0.600000X-0.750000X0.600000X-0.750000X-0.600000X0*%
%ADD44O,2.000000X1.700000*%
%ADD45C,1.600000*%
%ADD46R,1.600000X1.600000*%
%ADD47RoundRect,0.237500X0.237500X-0.287500X0.237500X0.287500X-0.237500X0.287500X-0.237500X-0.287500X0*%
%ADD48RoundRect,0.237500X-0.287500X-0.237500X0.287500X-0.237500X0.287500X0.237500X-0.287500X0.237500X0*%
G04 APERTURE END LIST*
D10*
%TO.C,J601*%
X200775000Y-125700000D03*
X200775000Y-128200000D03*
X200775000Y-130700000D03*
D11*
X200775000Y-133200000D03*
%TD*%
D12*
%TO.C,S501*%
X99300000Y-130700000D03*
D13*
X99300000Y-126000000D03*
X99300000Y-121300000D03*
%TD*%
D14*
%TO.C,C204*%
X148650000Y-116337500D03*
X148650000Y-118062500D03*
%TD*%
D15*
%TO.C,R403*%
X116100000Y-106612500D03*
X116100000Y-104787500D03*
%TD*%
%TO.C,R502*%
X113300000Y-122012500D03*
X113300000Y-120187500D03*
%TD*%
D16*
%TO.C,C502*%
X108162500Y-117600000D03*
X106437500Y-117600000D03*
%TD*%
D17*
%TO.C,JP304*%
X167400000Y-141375000D03*
D18*
X167400000Y-139925000D03*
%TD*%
D19*
%TO.C,J201*%
X182000000Y-118110000D03*
X178100000Y-118110000D03*
X182000000Y-116840000D03*
X178100000Y-116840000D03*
X182000000Y-115570000D03*
X178100000Y-115570000D03*
X182000000Y-114300000D03*
X178100000Y-114300000D03*
X182000000Y-113030000D03*
X178100000Y-113030000D03*
X182000000Y-111760000D03*
X178100000Y-111760000D03*
X182000000Y-110490000D03*
X178100000Y-110490000D03*
%TD*%
D20*
%TO.C,R202*%
X151700000Y-128087500D03*
X151700000Y-129912500D03*
%TD*%
D21*
%TO.C,C201*%
X190600000Y-110162500D03*
X190600000Y-108437500D03*
%TD*%
D22*
%TO.C,C304*%
X171800000Y-138100000D03*
X173525000Y-138100000D03*
%TD*%
D23*
%TO.C,JP206*%
X146650000Y-135000000D03*
D24*
X145200000Y-135000000D03*
%TD*%
D25*
%TO.C,R203*%
X146087500Y-125700000D03*
X147912500Y-125700000D03*
%TD*%
D23*
%TO.C,JP210*%
X174300000Y-110500000D03*
D24*
X172850000Y-110500000D03*
%TD*%
D26*
%TO.C,J302*%
X176500000Y-147525000D03*
D27*
X174000000Y-147525000D03*
X171500000Y-147525000D03*
X169000000Y-147525000D03*
X166500000Y-147525000D03*
X164000000Y-147525000D03*
%TD*%
D15*
%TO.C,R402*%
X179800000Y-106112500D03*
X179800000Y-104287500D03*
%TD*%
D28*
%TO.C,JP203*%
X145375000Y-129600000D03*
D29*
X146825000Y-129600000D03*
%TD*%
D15*
%TO.C,R404*%
X118600000Y-106612500D03*
X118600000Y-104787500D03*
%TD*%
D14*
%TO.C,C401*%
X186900000Y-147662500D03*
X186900000Y-145937500D03*
%TD*%
D30*
%TO.C,Y201*%
X145850000Y-123850000D03*
X148050000Y-123850000D03*
X148050000Y-122050000D03*
X145850000Y-122050000D03*
%TD*%
D14*
%TO.C,C308*%
X183500000Y-142025000D03*
X183500000Y-140300000D03*
%TD*%
%TO.C,C402*%
X115400000Y-146662500D03*
X115400000Y-144937500D03*
%TD*%
D26*
%TO.C,J301*%
X152050000Y-147425000D03*
D27*
X149550000Y-147425000D03*
X147050000Y-147425000D03*
X144550000Y-147425000D03*
X142050000Y-147425000D03*
X139550000Y-147425000D03*
%TD*%
D31*
%TO.C,U201*%
X151625000Y-115550000D03*
X151625000Y-116050000D03*
X151625000Y-116550000D03*
X151625000Y-117050000D03*
X151625000Y-117550000D03*
X151625000Y-118050000D03*
X151625000Y-118550000D03*
X151625000Y-119050000D03*
X151625000Y-119550000D03*
X151625000Y-120050000D03*
X151625000Y-120550000D03*
X151625000Y-121050000D03*
X151625000Y-121550000D03*
X151625000Y-122050000D03*
X151625000Y-122550000D03*
X151625000Y-123050000D03*
D32*
X153550000Y-124975000D03*
X154050000Y-124975000D03*
X154550000Y-124975000D03*
X155050000Y-124975000D03*
X155550000Y-124975000D03*
X156050000Y-124975000D03*
X156550000Y-124975000D03*
X157050000Y-124975000D03*
X157550000Y-124975000D03*
X158050000Y-124975000D03*
X158550000Y-124975000D03*
X159050000Y-124975000D03*
X159550000Y-124975000D03*
X160050000Y-124975000D03*
X160550000Y-124975000D03*
X161050000Y-124975000D03*
D31*
X162975000Y-123050000D03*
X162975000Y-122550000D03*
X162975000Y-122050000D03*
X162975000Y-121550000D03*
X162975000Y-121050000D03*
X162975000Y-120550000D03*
X162975000Y-120050000D03*
X162975000Y-119550000D03*
X162975000Y-119050000D03*
X162975000Y-118550000D03*
X162975000Y-118050000D03*
X162975000Y-117550000D03*
X162975000Y-117050000D03*
X162975000Y-116550000D03*
X162975000Y-116050000D03*
X162975000Y-115550000D03*
D32*
X161050000Y-113625000D03*
X160550000Y-113625000D03*
X160050000Y-113625000D03*
X159550000Y-113625000D03*
X159050000Y-113625000D03*
X158550000Y-113625000D03*
X158050000Y-113625000D03*
X157550000Y-113625000D03*
X157050000Y-113625000D03*
X156550000Y-113625000D03*
X156050000Y-113625000D03*
X155550000Y-113625000D03*
X155050000Y-113625000D03*
X154550000Y-113625000D03*
X154050000Y-113625000D03*
X153550000Y-113625000D03*
%TD*%
D25*
%TO.C,R301*%
X155662500Y-131650000D03*
X153837500Y-131650000D03*
%TD*%
D11*
%TO.C,J401*%
X192200000Y-148200000D03*
D10*
X192200000Y-145700000D03*
X192200000Y-143200000D03*
%TD*%
D16*
%TO.C,C503*%
X120837500Y-114500000D03*
X122562500Y-114500000D03*
%TD*%
D33*
%TO.C,H103*%
X200000000Y-137600000D03*
X198302944Y-138302944D03*
X201697056Y-141697056D03*
D34*
X200000000Y-140000000D03*
D33*
X198302944Y-141697056D03*
X201697056Y-138302944D03*
X197600000Y-140000000D03*
X200000000Y-142400000D03*
X202400000Y-140000000D03*
%TD*%
D35*
%TO.C,PS501*%
X125650000Y-114550000D03*
X125650000Y-115500000D03*
X125650000Y-116450000D03*
X128150000Y-116450000D03*
X128150000Y-114550000D03*
%TD*%
D36*
%TO.C,U301*%
X138095000Y-134875000D03*
X139365000Y-134875000D03*
X140635000Y-134875000D03*
X141905000Y-134875000D03*
X141905000Y-129725000D03*
X140635000Y-129725000D03*
X139365000Y-129725000D03*
X138095000Y-129725000D03*
%TD*%
D11*
%TO.C,J404*%
X109775000Y-147400000D03*
D10*
X109775000Y-144900000D03*
X109775000Y-142400000D03*
%TD*%
D18*
%TO.C,JP308*%
X164200000Y-139925000D03*
D17*
X164200000Y-141375000D03*
%TD*%
D28*
%TO.C,JP204*%
X173375000Y-130800000D03*
D29*
X174825000Y-130800000D03*
%TD*%
D15*
%TO.C,R401*%
X177300000Y-104287500D03*
X177300000Y-106112500D03*
%TD*%
D14*
%TO.C,C202*%
X143750000Y-122087500D03*
X143750000Y-123812500D03*
%TD*%
D37*
%TO.C,S201*%
X193050000Y-107077500D03*
X202150000Y-107077500D03*
X193050000Y-111577500D03*
X202150000Y-111577500D03*
%TD*%
D21*
%TO.C,C306*%
X169750000Y-139787500D03*
X169750000Y-141512500D03*
%TD*%
D38*
%TO.C,J303*%
X126200000Y-146400000D03*
D27*
X128700000Y-146400000D03*
X131200000Y-146400000D03*
%TD*%
D39*
%TO.C,J502*%
X201800000Y-119925000D03*
D40*
X201800000Y-117385000D03*
X201800000Y-114845000D03*
%TD*%
D41*
%TO.C,IC501*%
X117400000Y-115300000D03*
D42*
X111200000Y-117600000D03*
X111200000Y-115300000D03*
X111200000Y-113000000D03*
%TD*%
D33*
%TO.C,H104*%
X197600000Y-100000000D03*
X198302944Y-98302944D03*
X198302944Y-101697056D03*
X202400000Y-100000000D03*
X201697056Y-98302944D03*
X200000000Y-97600000D03*
D34*
X200000000Y-100000000D03*
D33*
X201697056Y-101697056D03*
X200000000Y-102400000D03*
%TD*%
D14*
%TO.C,C310*%
X161550000Y-141525000D03*
X161550000Y-139800000D03*
%TD*%
D43*
%TO.C,J501*%
X99675000Y-112350000D03*
D44*
X99675000Y-109850000D03*
%TD*%
D14*
%TO.C,C307*%
X135250000Y-129662500D03*
X135250000Y-127937500D03*
%TD*%
D36*
%TO.C,U302*%
X166395000Y-135675000D03*
X167665000Y-135675000D03*
X168935000Y-135675000D03*
X170205000Y-135675000D03*
X170205000Y-130525000D03*
X168935000Y-130525000D03*
X167665000Y-130525000D03*
X166395000Y-130525000D03*
%TD*%
D33*
%TO.C,H102*%
X100000000Y-137600000D03*
X98302944Y-141697056D03*
X100000000Y-142400000D03*
X102400000Y-140000000D03*
X97600000Y-140000000D03*
X101697056Y-141697056D03*
X98302944Y-138302944D03*
D34*
X100000000Y-140000000D03*
D33*
X101697056Y-138302944D03*
%TD*%
D18*
%TO.C,JP306*%
X152000000Y-140575000D03*
D17*
X152000000Y-142025000D03*
%TD*%
D21*
%TO.C,C504*%
X130800000Y-116262500D03*
X130800000Y-114537500D03*
%TD*%
D22*
%TO.C,C309*%
X136337500Y-137900000D03*
X138062500Y-137900000D03*
%TD*%
D14*
%TO.C,C501*%
X107400000Y-112975000D03*
X107400000Y-111250000D03*
%TD*%
D20*
%TO.C,R501*%
X104600000Y-129037500D03*
X104600000Y-130862500D03*
%TD*%
D16*
%TO.C,C305*%
X132962500Y-134400000D03*
X131237500Y-134400000D03*
%TD*%
D17*
%TO.C,JP602*%
X159100000Y-134850000D03*
D18*
X159100000Y-133400000D03*
%TD*%
D26*
%TO.C,J406*%
X126100000Y-100625000D03*
D27*
X123600000Y-100625000D03*
X121100000Y-100625000D03*
X118600000Y-100625000D03*
X116100000Y-100625000D03*
X113600000Y-100625000D03*
X111100000Y-100625000D03*
%TD*%
D23*
%TO.C,JP209*%
X187725000Y-110500000D03*
D24*
X186275000Y-110500000D03*
%TD*%
D23*
%TO.C,JP307*%
X178425000Y-140000000D03*
D24*
X176975000Y-140000000D03*
%TD*%
D26*
%TO.C,J405*%
X187300000Y-100425000D03*
D27*
X184800000Y-100425000D03*
X182300000Y-100425000D03*
X179800000Y-100425000D03*
X177300000Y-100425000D03*
X174800000Y-100425000D03*
X172300000Y-100425000D03*
%TD*%
D45*
%TO.C,C301*%
X109517621Y-126000000D03*
D46*
X107017621Y-126000000D03*
%TD*%
D28*
%TO.C,JP205*%
X173275000Y-135800000D03*
D29*
X174725000Y-135800000D03*
%TD*%
D23*
%TO.C,JP303*%
X133025000Y-137000000D03*
D24*
X131575000Y-137000000D03*
%TD*%
D22*
%TO.C,C303*%
X140537500Y-138000000D03*
X142262500Y-138000000D03*
%TD*%
D47*
%TO.C,D202*%
X153900000Y-129875000D03*
X153900000Y-128125000D03*
%TD*%
D38*
%TO.C,J403*%
X152500000Y-99500000D03*
D27*
X155000000Y-99500000D03*
X157500000Y-99500000D03*
X160000000Y-99500000D03*
X162500000Y-99500000D03*
%TD*%
D38*
%TO.C,J402*%
X134500000Y-99575000D03*
D27*
X137000000Y-99575000D03*
X139500000Y-99575000D03*
X142000000Y-99575000D03*
X144500000Y-99575000D03*
%TD*%
D15*
%TO.C,R503*%
X113300000Y-126012500D03*
X113300000Y-124187500D03*
%TD*%
D33*
%TO.C,H101*%
X97600000Y-100000000D03*
X101697056Y-98302944D03*
X98302944Y-101697056D03*
X98302944Y-98302944D03*
X101697056Y-101697056D03*
D34*
X100000000Y-100000000D03*
D33*
X100000000Y-97600000D03*
X102400000Y-100000000D03*
X100000000Y-102400000D03*
%TD*%
D21*
%TO.C,C302*%
X124600000Y-139137500D03*
X124600000Y-140862500D03*
%TD*%
D25*
%TO.C,R201*%
X194987500Y-119000000D03*
X196812500Y-119000000D03*
%TD*%
D18*
%TO.C,JP601*%
X162000000Y-133475000D03*
D17*
X162000000Y-134925000D03*
%TD*%
%TO.C,JP305*%
X138100000Y-142125000D03*
D18*
X138100000Y-140675000D03*
%TD*%
D48*
%TO.C,D201*%
X195025000Y-117200000D03*
X196775000Y-117200000D03*
%TD*%
D16*
%TO.C,C203*%
X146187500Y-120050000D03*
X147912500Y-120050000D03*
%TD*%
D14*
%TO.C,C206*%
X145650000Y-118075000D03*
X145650000Y-116350000D03*
%TD*%
M02*
